<svg xmlns="http://www.w3.org/2000/svg" viewBox="0 0 464.8 107.48"><title>Asset 1</title><g id="Layer_2" data-name="Layer 2"><g id="Layer_1-2" data-name="Layer 1"><path d="M68,17.6v7.91L8.94,55.72,68,86.22v7.91L0,58.8V52.93Z"/><path d="M128.88,7a30.58,30.58,0,0,0-5.42-.44q-15.1,0-15.1,18.91V32.7h26.1v6.6h-26.1v68.18h-7.19V39.3H90.32V32.7h10.85V25.37q0-12.18,5.87-18.77T123.46,0a37.18,37.18,0,0,1,6,.44,29.71,29.71,0,0,1,5.13,1.32V8.5A44.64,44.64,0,0,0,128.88,7Z"/><path d="M255.72,107.48V63.05q0-12.16-5.87-18.84t-16.27-6.67a23.57,23.57,0,0,0-9,1.76A21.46,21.46,0,0,0,217,44.43a24.66,24.66,0,0,0-5.13,8.28A30.69,30.69,0,0,0,210,63.93v43.55h-7.19V62.61q0-11.73-5.86-18.4t-16-6.67a21.92,21.92,0,0,0-9.39,2.05,23.1,23.1,0,0,0-7.62,5.72,27.44,27.44,0,0,0-5.06,8.5A29.65,29.65,0,0,0,157,64.37v43.11h-7.19V32.7H157V46a43.81,43.81,0,0,1,4-5.64,28.85,28.85,0,0,1,5.2-4.84,24.29,24.29,0,0,1,6.82-3.38A29.38,29.38,0,0,1,182,30.94a28.37,28.37,0,0,1,8.87,1.32A26.15,26.15,0,0,1,198,35.78a25.3,25.3,0,0,1,5.35,5.13,37.39,37.39,0,0,1,3.88,6.16,39.11,39.11,0,0,1,4.26-6,29.51,29.51,0,0,1,5.79-5.21,28,28,0,0,1,7.48-3.59,31.27,31.27,0,0,1,9.45-1.32,30.38,30.38,0,0,1,12,2.27,26.17,26.17,0,0,1,9.09,6.31,27,27,0,0,1,5.72,9.82,39.47,39.47,0,0,1,2,12.83v45.31Z"/><path d="M364.81,107.48,332.11,65H298.53v42.52h-7.62V4.84H334A50.38,50.38,0,0,1,349.12,7a34.48,34.48,0,0,1,11.51,6,27.65,27.65,0,0,1,7.4,9.23A26.35,26.35,0,0,1,370.67,34v.29a27.88,27.88,0,0,1-2.27,11.51,26.14,26.14,0,0,1-6.31,8.72,32.17,32.17,0,0,1-9.53,5.94,48.1,48.1,0,0,1-11.95,3.16l33.87,43.84Zm-1.76-73.25q0-10.44-7.7-16.47t-21.78-6h-35V58.06h34.6a42.11,42.11,0,0,0,11.95-1.61,28.73,28.73,0,0,0,9.46-4.64,21.89,21.89,0,0,0,6.23-7.35,21,21,0,0,0,2.28-9.93Z"/><path d="M396.77,94.13V86.22L455.86,56l-59.09-30.5V17.6l68,35.33V58.8Z"/></g></g></svg>