<svg xmlns="http://www.w3.org/2000/svg" viewBox="0 0 326.06 410.94"><defs><style>.cls-1,.cls-11,.cls-3,.cls-6{fill:#fff;}.cls-1{isolation:isolate;}.cls-2,.cls-3,.cls-4,.cls-5,.cls-9{stroke:#000;}.cls-2,.cls-5,.cls-6,.cls-7,.cls-8,.cls-9{stroke-miterlimit:10;}.cls-2{stroke-width:1.78px;}.cls-3,.cls-4,.cls-5{stroke-width:0.44px;}.cls-5,.cls-7,.cls-9{fill:none;}.cls-6,.cls-7,.cls-8{stroke:#231f20;}.cls-6{stroke-width:0.25px;}.cls-10,.cls-8{fill:#231f20;}.cls-9{stroke-width:0.44px;}</style></defs><title>avatar</title><g id="Layer_2" data-name="Layer 2"><g id="Layer_2-2" data-name="Layer 2"><path class="cls-1" d="M240.25,120.38c-36.3-40-77.28-22-77.28-22l-.11-4,1.26-1.12L155.29,93,138.7,92l-37.89,16.8L85.59,124.38l-14.8,23.67-4.17,48.5-4.25,46L63,261.1l1.87,24.12,6,22.38,3,9.45,3.37,10.73,1.69,5.14L83,344.55l4.53,10.67s1.41,2.63,5.48,9.15,18.42,19.06,18.42,19.06,18.22,13.34,24.79,18.57,14.32,6.05,21.54,7.94,4.47.81,14.51-.88a47,47,0,0,0,17.83-7.4c19.23-13.94,23.66-18.94,32.24-25s18.49-26.88,18.49-26.88l9-25.95a561.2,561.2,0,0,0,18.61-94.85C274.14,176.17,240.25,120.38,240.25,120.38Z"/><path d="M235.49,98.31a47.64,47.64,0,0,1,9.33-1.23,46.15,46.15,0,0,1,9.33.42A40.12,40.12,0,0,1,271.31,104a44.34,44.34,0,0,1,12.59,13.45,78.89,78.89,0,0,1,7.74,17.11c-.36-1.54-.73-3.08-1.13-4.61s-.93-3-1.44-4.53a62.34,62.34,0,0,0-4-8.67,41.61,41.61,0,0,0-12.76-14.22,38.35,38.35,0,0,0-18-6.42A44.52,44.52,0,0,0,235.49,98.31Z"/><path class="cls-2" d="M251.21,109.48s50.61-8.3,74.14,23.13c0,0-17-23.13-71.37-21,0,0,29.85,6.73,43.89,21.95,0,0-24.32-17.2-43.7-18.59,0,0,55.16,24.72,53.78,41.13,0,0-3.36-14-38.75-23.83,0,0,30.45,13.35,31.24,33.32,0,0-6.72-14.24-20.37-18.39,0,0,18,22.34,21.75,34.8,0,0-9.05-16-15.1-16.81,0,0,13.91,24.12,13.72,35,0,0-4-13.45-9.49-11.67,0,0,9.88,19.38,6.92,31.83,0,0-1.78-8.75-4.75-8.52,0,0,3,18,1.58,24.54,0,0-.59-9.3-3.36-9.89L290.16,241,286.72,234s-19.1-116.61-44.8-124.13Z"/><path class="cls-3" d="M195.26,228.33s6.77-10.06,18-12.14,21.5,7,21.5,7,3,5,.74,8.15-16.9,1.93-16.9,1.93-18.51-4.45-23.38-4.37C195.26,228.87,194.82,228.93,195.26,228.33Z"/><path class="cls-4" d="M209.64,225.43a8.78,8.78,0,0,0,8.07,7.47c3,.31,8.14-2.53,8.14-7.47a8.1,8.1,0,0,0-8.1-8.1C213.27,217.33,208.93,221,209.64,225.43Z"/><path d="M240.36,233.76s.25-6.82-4-11-10.79-6.05-10.79-6.05a15.72,15.72,0,0,0-4.84-.89l5.46,1.89s8.11,3.22,9.31,6.23,2,5.55,1.17,7.2l1.63-.67A5.13,5.13,0,0,1,240.36,233.76Z"/><path d="M206.92,217.33a16.32,16.32,0,0,1,4.36-2.22A25.19,25.19,0,0,1,216,214a33.24,33.24,0,0,1,4.89-.38c1.64,0,3.28.06,4.92.18l-2.45-.37c-.82-.05-1.64-.13-2.47-.16a30.58,30.58,0,0,0-5,.29,23.41,23.41,0,0,0-4.8,1.26A13.69,13.69,0,0,0,206.92,217.33Z"/><path d="M204.4,210a68.81,68.81,0,0,1,10.43-.88,45,45,0,0,1,10.36,1.06,24.19,24.19,0,0,1,9.46,4.13,17.68,17.68,0,0,1,3.61,3.72,19.17,19.17,0,0,1,2.37,4.64,19.36,19.36,0,0,0-2.19-4.76,17.69,17.69,0,0,0-3.6-3.83,24.44,24.44,0,0,0-9.55-4.33,45.44,45.44,0,0,0-10.47-.92A52.89,52.89,0,0,0,204.4,210Z"/><path d="M228.13,208c1.18.38,2.33.84,3.46,1.33a30.62,30.62,0,0,1,3.29,1.65,16.1,16.1,0,0,1,5.48,4.83,11.23,11.23,0,0,0-2.23-3,18.2,18.2,0,0,0-3-2.22A23,23,0,0,0,228.13,208Z"/><path d="M163,21S165.9,14.48,178,10.82c0,0-7.22,3.07-9.59,9.3,0,0,14.93-9.79,28.57-8.31,0,0-6.72,1.88-7.22,3.36a62,62,0,0,1,12.85.75s-11.07,1.13-13.24,3.31c0,0,8-1.19,11.46.29,0,0-7.31.4-11.07,3.46,0,0,12.75-.69,18.19,3.56,0,0-7.91-3.56-14.33-1.18,0,0,6.42.49,9.39,5.63,0,0-8.3-7.51-14.14-4.25a10.13,10.13,0,0,0-4.25,3.46s5.64-2.47,8.4-.59c0,0-4.74.19-6.32,2.22,0,0,4.64.4,5.63,2.52,0,0-7.16-.79-7.91.35,0,0,3.91,1,4.26,4.3,0,0-5-2.44-7.63-1a188.7,188.7,0,0,0-11.46,23.64s2.9.14,2.45,5.09c0,0-2.15,5,1.46,6.92,0,0,10.88-.45,16.95,3.45,0,0,35,11.28,43.6,20.62a59.74,59.74,0,0,0,6.13,5.73c3.41,2.44,9.38,7.71,15.84,16,8.71,11.25,18.31,28.08,23.7,51.07,0,0,7.51,38.45,7,51.11v21.65l-2-9.33-.59,21.88-2.77-8.8-1.58,8.8-1.09-3-1.38,10.58s-4.16-8.9-6-9.49,5.63,38.7-4,57.53c0,0-12.45,14.83-18.09,16.61,0,0,13.35-15,14.61-20.09,0,0,4.15-13.64,3.56-22.84,0,0-2.15,12.83-7.49,22.17L255,314.72l5.86-15.49,2.67-12.9s-6.23,17.72-8.46,21.42S258.38,295,259.78,286l2.75-38.63.43-3s5.2-18.78,8.32-20.41c0,0-2.38,15-1.19,16.21s3.61-1.32,3.61-1.32.2-14.79,1.53-18.45.15-13.19-1.19-13.69-14.92-3.85-14.92-3.85-2.28-16.61-4.15-21.46S251.9,174,251.9,174l3.86,2.27s-2.18-11.27-4.06-12.16l3.27,1.09-4.35-17.4A113.88,113.88,0,0,0,245.38,136c-1.63-3-6-9.24-8.5-11.17-9.16-7.13-11.47-7.31-14.44-6.42,0,0,4.95-3,10.28-1.68,0,0-10.77-3-16.8-.3l5.34-5.64s-9.3,2.67-11.67,4.85l6.3-7.89s-7.41,1.26-9.26,4.23l1.7-8.75-6.89,5.27-.25-7.75L196.42,106l1.61-6.4-6.38,6.82,2.22-8.16-6.67,5.64.26-8.32-6,10-.15-9.06s-5.92,10.69-9.33,10.92l3.92-9.52L168.05,108l1.13-6.5-4.37,5.79L163,102.76V21Z"/><path d="M163.9,21.19a.27.27,0,0,1,0,.12s0,0,0,0l.06-.11.12-.22.28-.45c.21-.29.42-.58.65-.86A16.14,16.14,0,0,1,166.49,18,22.25,22.25,0,0,1,170,15.32a30.51,30.51,0,0,1,4-2.09,42.22,42.22,0,0,1,4.24-1.57L177.62,10a22.37,22.37,0,0,0-3.12,1.74A23.69,23.69,0,0,0,171.7,14a15.8,15.8,0,0,0-4.14,5.86l-1,2.46,2.26-1.43a63.18,63.18,0,0,1,13.46-6.28,35.82,35.82,0,0,1,14.54-1.9L196.71,11c-1.33.38-2.62.8-3.91,1.31a17.26,17.26,0,0,0-1.93.86,9.19,9.19,0,0,0-1,.58,2.56,2.56,0,0,0-1,1.16l-.49,1.16,1.34-.05a58.94,58.94,0,0,1,12.66.72l.06-1.65c-2.32.25-4.6.59-6.89,1-1.14.24-2.28.5-3.42.84a9.1,9.1,0,0,0-3.44,1.67l-2,1.78,2.74-.38a48.51,48.51,0,0,1,5.65-.44,26,26,0,0,1,2.8.11,9.38,9.38,0,0,1,2.57.57l.28-1.57a31.46,31.46,0,0,0-6,1,15.7,15.7,0,0,0-5.58,2.64l-1.94,1.53,2.5-.1a52.78,52.78,0,0,1,9.23.45,30.15,30.15,0,0,1,4.47,1,13,13,0,0,1,3.95,1.94l.82-1.36a28,28,0,0,0-7.32-1.92,16.89,16.89,0,0,0-7.61.73l-3.25,1.16,3.46.36a13.6,13.6,0,0,1,2.58.57,13,13,0,0,1,2.45,1.06,10.31,10.31,0,0,1,2.12,1.57,9.39,9.39,0,0,1,1.62,2l1.2-1A28.52,28.52,0,0,0,200.26,28a22.22,22.22,0,0,0-3.59-1.87,12.65,12.65,0,0,0-4-1,7.59,7.59,0,0,0-4.18.9l.1-.05a9.11,9.11,0,0,0-1.36.7,11.5,11.5,0,0,0-1.21.86,10.12,10.12,0,0,0-2,2.19l-1.47,2.12,2.41-1a17.23,17.23,0,0,1,4-1.13,5.55,5.55,0,0,1,3.69.47l.39-1.39a16.55,16.55,0,0,0-3.56.59,6.44,6.44,0,0,0-3.33,1.93l-.9,1.06,1.43.15a13.21,13.21,0,0,1,2.93.64,3.63,3.63,0,0,1,2.09,1.45l.77-1.07c-1.37-.14-2.71-.23-4.09-.26-.68,0-1.37,0-2.08,0a8.78,8.78,0,0,0-1.1.15,2.11,2.11,0,0,0-1.35.75l-.68.8,1.11.33a7.31,7.31,0,0,1,1.31.55,6.08,6.08,0,0,1,1.17.81,3.72,3.72,0,0,1,1.23,2.3l1.06-.75A17.13,17.13,0,0,0,185,37a6.73,6.73,0,0,0-4.37.33l-.17.08-.11.19c-2.24,3.82-4.23,7.73-6.14,11.69s-3.68,8-5.35,12l-.36.88,1,.11a1.83,1.83,0,0,1,.92.48,2.53,2.53,0,0,1,.63,1,6.76,6.76,0,0,1,.23,2.79l.06-.21a9.48,9.48,0,0,0-.57,2,7.61,7.61,0,0,0-.08,2.14,4.88,4.88,0,0,0,.73,2.13,4.42,4.42,0,0,0,1.7,1.52l.16.09h.2a46.63,46.63,0,0,1,8.58.61,22.25,22.25,0,0,1,8,2.73l.08,0,.08,0c8.26,2.73,16.45,5.77,24.42,9.25a120.49,120.49,0,0,1,11.66,5.8,44.47,44.47,0,0,1,5.34,3.59,22.64,22.64,0,0,1,2.31,2.19c.77.81,1.55,1.58,2.35,2.34,14.06,10.51,24.74,24.64,32.37,40.27a139.27,139.27,0,0,1,9.13,24.39c.55,2.1,1.14,4.2,1.54,6.32l1.2,6.43q1.17,6.43,2.23,12.89c1.37,8.61,2.72,17.26,3.28,25.92.19,8.65.07,17.45.12,26.17l1.11-.12-2-9.33-1-4.54-.12,4.64-.58,21.88,1.05-.14-2.77-8.8-.65-2.06-.39,2.13-1.57,8.8,1-.09-1.09-3-.73-2-.28,2.12-1.38,10.57,1-.15a60.33,60.33,0,0,0-4.26-7.7,7.81,7.81,0,0,0-1.54-1.75l-.29-.2-.19-.08c-.06,0,0,0-.15,0a.72.72,0,0,0-.36,0,.74.74,0,0,0-.42.55,1.72,1.72,0,0,0-.07.34,9.4,9.4,0,0,0-.05,1.16c0,1.49.14,2.93.25,4.39.45,5.79.89,11.58,1.05,17.38a128.63,128.63,0,0,1-.56,17.34c-.65,5.72-1.77,11.49-4.34,16.62l.06-.09c-2.66,3.12-5.44,6.17-8.34,9.07-1.45,1.44-2.94,2.85-4.51,4.17a18.58,18.58,0,0,1-5,3.24l.47.73c2.66-3,5.24-6.1,7.73-9.27,1.24-1.58,2.45-3.19,3.6-4.85a30.33,30.33,0,0,0,3.07-5.28,95.74,95.74,0,0,0,2.86-11.78,53.55,53.55,0,0,0,1-12.07l-.19-3.58-.65,3.53a87,87,0,0,1-4.33,15.44,45.73,45.73,0,0,1-3.48,7.18l-4.42,6.74.72.36,5.84-15.5v-.05l2.66-12.91-.74-.2q-1.93,5.51-4,11a89.76,89.76,0,0,1-4.56,10.65c0,.07-.21.2,0,.12,0,0,.16,0,.22,0a.27.27,0,0,1,.13.13s0,.06,0,0V308a5.78,5.78,0,0,1,.09-.68c.09-.46.2-.94.31-1.41l.72-2.82,1.49-5.65c1-3.77,1.94-7.56,2.56-11.43h0v0l2.71-38.63v0l.44-3v0c1-3.55,2.1-7.09,3.32-10.58.62-1.74,1.27-3.47,2-5.15.37-.84.76-1.67,1.21-2.47a5.72,5.72,0,0,1,1.6-2l-.45-.33c-.52,3.4-1,6.8-1.3,10.22a32.08,32.08,0,0,0-.15,5.2,3.18,3.18,0,0,0,.15.69,1.14,1.14,0,0,0,.23.39,1.36,1.36,0,0,0,.34.23,1.79,1.79,0,0,0,1.49,0,7.12,7.12,0,0,0,2.18-1.56l.08-.08v-.12c.08-4,.22-8,.54-12a37.84,37.84,0,0,1,.82-5.88,16.37,16.37,0,0,0,.73-6,31.31,31.31,0,0,0-.71-6,9.93,9.93,0,0,0-.45-1.47,3.09,3.09,0,0,0-.4-.73,1,1,0,0,0-.41-.32l-.37-.12-2.91-.78-11.65-2.94.2.22c-.7-4.92-1.47-9.83-2.45-14.72a44.52,44.52,0,0,0-1.91-7.23c-.91-2.32-1.84-4.62-2.9-6.89l-.34.32,3.85,2.27.47.28-.11-.53q-.63-3.19-1.48-6.33c-.29-1.05-.6-2.09-1-3.11a15.33,15.33,0,0,0-.64-1.52,3.12,3.12,0,0,0-1.09-1.37l-.17.44,3.26,1.08.4.13-.1-.4-4.36-17.4h0c-1.29-3.4-2.69-6.75-4.29-10a52.79,52.79,0,0,0-5.9-9.16,24.76,24.76,0,0,0-3.72-4c-1.44-1.11-2.89-2.2-4.38-3.24a30.49,30.49,0,0,0-4.72-2.76,8.55,8.55,0,0,0-2.67-.73,7.26,7.26,0,0,0-2.75.35l.15.35a16.48,16.48,0,0,1,4.93-1.75,13.46,13.46,0,0,1,2.61-.22,11.92,11.92,0,0,1,2.6.3l.09-.35a45.51,45.51,0,0,0-8.45-1.35,19.39,19.39,0,0,0-8.47,1.07l.2.28,5.33-5.64.44-.46-.61.18q-3.06.9-6,2c-1,.38-2,.78-2.94,1.22a12.2,12.2,0,0,0-2.76,1.66l.24.22,6.3-7.89.26-.33-.41.08a29.16,29.16,0,0,0-5,1.39,15.57,15.57,0,0,0-2.37,1.13,6,6,0,0,0-2,1.78l.28.11,1.7-8.75.07-.39-.31.24-6.89,5.27.23.11-.25-7.75v-.34l-.23.25-4.77,5.26.23.12,1.61-6.4.12-.5-.35.38-6.37,6.82.21.12L194,98.27l.11-.39-.31.26-6.66,5.64.19.09.25-8.31,0-.43-.22.36-6,10,.19,0-.15-9.07v-.36l-.18.32a63,63,0,0,1-3.94,6.16,27.32,27.32,0,0,1-2.34,2.8,5.72,5.72,0,0,1-3,1.92l.09.12,3.91-9.52.22-.53-.35.46L168,108l.12,0,1.12-6.5,0-.25-.15.21-4.36,5.79h.09l-1.78-4.54v0L163,21ZM163,19.31V21L163,102.76h0l1.78,4.54,0,.1.06-.08,4.37-5.79-.11,0L168,108l0,.27.16-.22,7.82-10.14-.13-.08-3.93,9.51-.06.14.14,0a5.78,5.78,0,0,0,3.09-2,27.54,27.54,0,0,0,2.36-2.82,63.6,63.6,0,0,0,4-6.18l-.19,0,.14,9.07v.36l.19-.31,6.05-10-.21-.06-.27,8.32v.26l.2-.17L194,98.33l-.2-.13-2.22,8.16-.14.5.35-.38,6.38-6.82-.22-.12-1.61,6.4-.14.52.37-.4,4.78-5.25-.25-.09.24,7.75v.28l.22-.17,6.9-5.26-.24-.15-1.7,8.75-.16.8.44-.69a5.54,5.54,0,0,1,1.86-1.67,15,15,0,0,1,2.32-1.11,29.62,29.62,0,0,1,5-1.37l-.15-.25-6.31,7.87.24.23a11.78,11.78,0,0,1,2.68-1.59c1-.44,1.93-.84,2.92-1.22,2-.73,4-1.4,6-2l-.17-.28-5.34,5.63-.56.59.76-.31a19,19,0,0,1,8.31-1,45.49,45.49,0,0,1,8.37,1.34l.1-.35a12.19,12.19,0,0,0-2.68-.32,14.12,14.12,0,0,0-2.68.22,17,17,0,0,0-5.07,1.79l-1.56.87,1.72-.52a6.84,6.84,0,0,1,2.61-.34,8,8,0,0,1,2.54.71,28.3,28.3,0,0,1,4.65,2.73c1.48,1,2.93,2.12,4.36,3.23a24.87,24.87,0,0,1,3.65,3.94,53.13,53.13,0,0,1,5.84,9.1c1.58,3.25,3,6.6,4.26,10v0l4.34,17.4.3-.28-3.26-1.09-1.45-.48,1.27.92a6.08,6.08,0,0,1,1.49,2.62c.37,1,.67,2,1,3.08.57,2.07,1,4.18,1.47,6.29l.36-.26L252,173.82l-.68-.4.33.72c1,2.24,2,4.54,2.88,6.85a45.25,45.25,0,0,1,1.87,7.15c1,4.87,1.73,9.78,2.42,14.69l0,.18.17,0L270.69,206l2.89.79.34.11a.37.37,0,0,1,.17.14,2.55,2.55,0,0,1,.32.59,9.43,9.43,0,0,1,.42,1.4,29.9,29.9,0,0,1,.69,5.9,16,16,0,0,1-.71,5.84,37.27,37.27,0,0,0-.86,6c-.32,4-.47,8-.55,12l.08-.2a6.27,6.27,0,0,1-2,1.41,1.22,1.22,0,0,1-1,.06.62.62,0,0,1-.19-.14.34.34,0,0,1-.09-.16,2.22,2.22,0,0,1-.11-.56,29.69,29.69,0,0,1,.16-5.06c.32-3.4.78-6.8,1.3-10.18l.11-.68-.56.36a6.09,6.09,0,0,0-1.85,2.26,24.5,24.5,0,0,0-1.24,2.52c-.75,1.7-1.41,3.44-2,5.19-1.24,3.51-2.34,7.05-3.36,10.62v0l-.44,3h0v0l-2.77,38.62v0c-.63,3.82-1.6,7.59-2.57,11.36l-1.5,5.65-.72,2.83c-.11.48-.22,1-.32,1.45a6,6,0,0,0-.1.77,1,1,0,0,0,0,.25.62.62,0,0,0,.06.21.49.49,0,0,0,.19.19.43.43,0,0,0,.31,0c.38-.19.33-.28.45-.4a39.88,39.88,0,0,0,2.52-5.35c.74-1.81,1.44-3.63,2.14-5.45,1.39-3.64,2.72-7.3,4-11l-.74-.2-2.68,12.9,0-.06-5.87,15.49L253.37,318l2-3.06,4.44-6.75a46.51,46.51,0,0,0,3.55-7.31,86.9,86.9,0,0,0,4.39-15.6l-.84,0a52.8,52.8,0,0,1-1,11.87,95.28,95.28,0,0,1-2.83,11.6c-1.59,3.55-4.15,6.75-6.56,9.91s-5.05,6.22-7.7,9.22l-1.18,1.34,1.66-.61a19,19,0,0,0,5.33-3.4c1.6-1.34,3.11-2.76,4.58-4.21,2.93-2.93,5.71-6,8.4-9.12l0,0,0-.05c2.66-5.3,3.8-11.16,4.46-16.94a129.24,129.24,0,0,0,.59-17.48c-.15-5.83-.59-11.64-1-17.43-.1-1.44-.22-2.9-.24-4.32a8.12,8.12,0,0,1,0-1,.69.69,0,0,1,0-.19c0-.06.08,0-.16.09-.44.06-.17,0-.18.06l.16.1a7.4,7.4,0,0,1,1.31,1.53,58.72,58.72,0,0,1,4.16,7.55l.75,1.57.23-1.72L279.21,253l-1,.11,1.08,3,.67,1.83.35-1.92,1.58-8.79-1,.06,2.76,8.8,1,3.07.09-3.22.6-21.88-1.09.1,2,9.33,1.13,5.33,0-5.45c0-8.74.09-17.41-.09-26.22-.55-8.77-1.9-17.41-3.26-26q-1.05-6.47-2.22-12.92l-1.19-6.44c-.41-2.17-1-4.29-1.55-6.41a140.46,140.46,0,0,0-9.18-24.62,123.61,123.61,0,0,0-13.89-22.31,98.45,98.45,0,0,0-8.79-9.82c-1.58-1.53-3.22-3-4.95-4.38-.87-.71-1.79-1.31-2.57-2s-1.61-1.44-2.39-2.18-1.56-1.51-2.3-2.29a23.2,23.2,0,0,0-2.43-2.31A44.72,44.72,0,0,0,227,91.66a119.72,119.72,0,0,0-11.78-5.88c-8-3.52-16.23-6.58-24.54-9.34l.16.08a23.69,23.69,0,0,0-8.49-3,47.72,47.72,0,0,0-8.87-.63l.36.08a3.11,3.11,0,0,1-1.68-2.56,7.62,7.62,0,0,1,.55-3.45l.05-.13v-.09a8.25,8.25,0,0,0-.3-3.39,4,4,0,0,0-1-1.6,3.1,3.1,0,0,0-1.84-.88l.62,1q2.5-6.06,5.34-12c1.9-3.92,3.9-7.83,6.09-11.56l-.28.27a5.42,5.42,0,0,1,3.39-.18,16.74,16.74,0,0,1,3.56,1.19l1.2.56-.14-1.3a5.15,5.15,0,0,0-1.7-3.24,7.66,7.66,0,0,0-1.46-1,8.21,8.21,0,0,0-1.63-.68l.43,1.13c-.13.12.17-.09.42-.11a6.12,6.12,0,0,1,.9-.12c.63-.05,1.28-.05,1.93,0,1.31,0,2.65.12,4,.26l1.34.14L193,34a3.73,3.73,0,0,0-1.34-1.46,7.33,7.33,0,0,0-1.6-.77,14.39,14.39,0,0,0-3.31-.72l.53,1.22a5.21,5.21,0,0,1,2.56-1.41,15.14,15.14,0,0,1,3.21-.52l2.38-.15-2-1.24a6.91,6.91,0,0,0-4.75-.72,18,18,0,0,0-4.39,1.24l.95,1.13A9,9,0,0,1,187,28.77,11,11,0,0,1,188,28a8.37,8.37,0,0,1,1.11-.57l.06,0,0,0a6.08,6.08,0,0,1,3.35-.7,11.13,11.13,0,0,1,3.53.86,24,24,0,0,1,6.36,4l4,3.39-2.76-4.36a11.21,11.21,0,0,0-1.88-2.39,11.77,11.77,0,0,0-2.43-1.8,15.82,15.82,0,0,0-2.74-1.2,14.87,14.87,0,0,0-3-.64l.21,1.52a15.5,15.5,0,0,1,6.89-.62,25.86,25.86,0,0,1,6.84,1.8l5.71,2.39-4.89-3.75a14.34,14.34,0,0,0-4.45-2.2,29.77,29.77,0,0,0-4.72-1.06,53.46,53.46,0,0,0-9.55-.48l.55,1.44a14.35,14.35,0,0,1,5-2.32,30.6,30.6,0,0,1,5.61-.95l3.43-.25-3.15-1.32a10.79,10.79,0,0,0-3.06-.69,27.1,27.1,0,0,0-3-.12,50.09,50.09,0,0,0-5.87.45l.7,1.4a8.12,8.12,0,0,1,2.74-1.26c1.07-.31,2.17-.57,3.28-.79,2.21-.44,4.48-.77,6.73-1l5.82-.65-5.76-1a52.9,52.9,0,0,0-6.51-.72,64.8,64.8,0,0,0-6.54,0l.85,1.11a3.18,3.18,0,0,1,.37-.32,5.44,5.44,0,0,1,.76-.45,18.78,18.78,0,0,1,1.76-.79c1.22-.47,2.5-.89,3.76-1.25l4.18-1.2L197,11a37.48,37.48,0,0,0-15.25,2,64.16,64.16,0,0,0-13.89,6.46l1.29,1a14.23,14.23,0,0,1,3.7-5.2,22,22,0,0,1,2.58-2,21.69,21.69,0,0,1,2.84-1.59L177.7,10a47,47,0,0,0-4.43,1.63,32.53,32.53,0,0,0-4.21,2.22,24.71,24.71,0,0,0-3.8,2.91,20,20,0,0,0-1.65,1.79C163.41,18.77,163.22,19,163,19.31Z"/><path class="cls-5" d="M163,410.58a135.57,135.57,0,0,0,15.55-3.39,34.53,34.53,0,0,0,9.79-4.55c8.46-5.71,20.54-14.79,29.84-22.51a79.79,79.79,0,0,0,23.64-32.93c6.76-17.79,12.77-38.95,12.77-38.95"/><path d="M177.27,71.62c2-2.19,3.94-4.38,6-6.51s4-4.31,6.05-6.41c4.09-4.21,8.24-8.36,12.57-12.31a145.69,145.69,0,0,1,13.46-11.24,42,42,0,0,1,3.59-2.51c1.24-.76,2.42-1.65,3.72-2.31s2.55-1.44,3.86-2.09,2.71-1.11,4.07-1.7c-5.79,1.3-11.08,4.26-16,7.49-2.53,1.56-4.82,3.45-7.19,5.23s-4.54,3.79-6.7,5.82a164.58,164.58,0,0,0-12.36,12.7A159.06,159.06,0,0,0,177.27,71.62Z"/><path d="M180.9,73.25c1.26-1.54,2.5-3.08,3.81-4.57s2.57-3,3.91-4.45c2.67-2.9,5.38-5.75,8.3-8.36a65.25,65.25,0,0,1,9.24-7.19,21.93,21.93,0,0,1,2.53-1.47A17.62,17.62,0,0,1,211.32,46a26.8,26.8,0,0,1,2.74-1.07c.95-.23,1.91-.49,2.87-.77-1,.09-2,.19-3,.31a27.75,27.75,0,0,0-2.93.71,17.78,17.78,0,0,0-2.82,1.07,20.69,20.69,0,0,0-2.73,1.3,47.13,47.13,0,0,0-9.74,7.06,69.82,69.82,0,0,0-8.15,8.79A71.56,71.56,0,0,0,180.9,73.25Z"/><path d="M199.51,79.77c.54-2.71,1.19-5.4,2-8s1.62-5.26,2.63-7.81a71.6,71.6,0,0,1,7.54-14.51A43.87,43.87,0,0,1,223.05,37.9a39.36,39.36,0,0,1,15.16-6A35.58,35.58,0,0,0,230,33.3a34.78,34.78,0,0,0-7.68,3.44,40.26,40.26,0,0,0-12.1,11.65,59.67,59.67,0,0,0-7.36,15.07A66.71,66.71,0,0,0,199.51,79.77Z"/><path d="M203.91,81.11c3.39,0,6.77-.06,10.12.22a41.21,41.21,0,0,1,9.81,1.77,16.4,16.4,0,0,1,8,5.11,10.85,10.85,0,0,1,2,8.83l-.55,2.52,1.95-1.63c2.45-2.07,5-4.07,7.64-5.94a75.77,75.77,0,0,1,8.19-5.13c2.83-1.42,5.91-2.79,9-2.54a4.46,4.46,0,0,1,3.63,2.49,11.74,11.74,0,0,1,1.06,4.68,11,11,0,0,0-.69-4.86,5.11,5.11,0,0,0-1.52-2,5.4,5.4,0,0,0-2.36-1,11.47,11.47,0,0,0-5,.43,30.3,30.3,0,0,0-4.65,1.77A62.3,62.3,0,0,0,242,90.69a96.43,96.43,0,0,0-7.88,5.92l1.4.89a12.13,12.13,0,0,0-2.27-10.35c-2.27-2.91-5.64-4.49-8.94-5.48a42.2,42.2,0,0,0-10.21-1.29A70.24,70.24,0,0,0,203.91,81.11Z"/><path d="M226.59,92.22a150.31,150.31,0,0,1,13.18-16.69A130.47,130.47,0,0,1,255.26,61c2.78-2.2,5.66-4.27,8.64-6.18a89.39,89.39,0,0,1,9.31-5.1,73.9,73.9,0,0,1,10-3.68,62.66,62.66,0,0,1,10.45-1.94,62.17,62.17,0,0,0-10.5,1.73,72.71,72.71,0,0,0-10,3.62,88.4,88.4,0,0,0-9.39,5.06q-4.5,2.85-8.71,6.14a136.77,136.77,0,0,0-28.4,31.56Z"/><path d="M229.69,94.16a61.53,61.53,0,0,1,8.66-7,54.61,54.61,0,0,1,9.78-5.35c6.81-2.87,14.61-3.94,21.71-1.66a31.39,31.39,0,0,1,9.78,5.13,47.91,47.91,0,0,1,7.77,8c1.13,1.47,2.16,3,3.21,4.56s1.94,3.18,2.83,4.82,1.74,3.29,2.54,5l2.29,5.1A81.66,81.66,0,0,0,287.62,93,47.48,47.48,0,0,0,279.84,85,31.45,31.45,0,0,0,270,79.68c-7.24-2.27-15.13-1.11-22,1.82A57.94,57.94,0,0,0,229.69,94.16Z"/><path d="M172.22,72.61c1.9-3.25,3.9-6.44,5.95-9.6s4.24-6.23,6.55-9.2a75.77,75.77,0,0,1,7.38-8.52,36.37,36.37,0,0,1,4.3-3.63,16.4,16.4,0,0,1,5-2.56c-3.69.95-6.77,3.41-9.5,6a76.41,76.41,0,0,0-7.52,8.46c-2.29,3-4.41,6.13-6.45,9.31S174,69.27,172.22,72.61Z"/><path d="M243.43,106.05a74.82,74.82,0,0,0-6.85-14.85A88.76,88.76,0,0,0,227,77.88l-1.34-1.56-1.43-1.47c-1-1-1.88-2-2.88-2.91-2-1.82-4-3.72-6.22-5.34-1.09-.82-2.12-1.74-3.26-2.48l-3.41-2.28A36.69,36.69,0,0,0,205,59.76l-3.58-2a96.68,96.68,0,0,1,13.59,9c2.19,1.63,4.14,3.54,6.15,5.37,1,.94,1.9,2,2.85,2.93l1.41,1.48,1.32,1.56a89.41,89.41,0,0,1,9.61,13.18A85.48,85.48,0,0,1,243.43,106.05Z"/><path d="M237.07,100.78a47.15,47.15,0,0,1,11.82-11.67,61.4,61.4,0,0,1,14.8-7.57,71.76,71.76,0,0,1,8-2.26,69.25,69.25,0,0,1,8.23-1.37,36.07,36.07,0,0,1,4.16-.33l4.17-.2c2.79,0,5.57.12,8.36.17-2.78-.13-5.57-.32-8.36-.39l-4.19.16a34.25,34.25,0,0,0-4.17.3,68.21,68.21,0,0,0-8.28,1.3,71.11,71.11,0,0,0-8.09,2.2,62.12,62.12,0,0,0-14.82,7.75A43.86,43.86,0,0,0,237.07,100.78Z"/><path d="M196.54,79.77a152.87,152.87,0,0,0,11.09-18.26,143.75,143.75,0,0,0,8.53-19.6A86.79,86.79,0,0,0,220.67,21,46.17,46.17,0,0,0,217.9,0a48.37,48.37,0,0,1,2.48,21,86.65,86.65,0,0,1-4.64,20.76,144.63,144.63,0,0,1-8.37,19.61A181.53,181.53,0,0,1,196.54,79.77Z"/><path d="M173,295.77s6.27-7.37,11.56-2.92c0,0,1.88,1.09,1.53,2.92S179.24,291.61,173,295.77Z"/><path d="M187.55,267.05S204.11,293,191.65,300A19.25,19.25,0,0,0,195,287.22C194.49,280.75,189.82,271.55,187.55,267.05Z"/><path d="M177.47,207.85s5.68-11,15.56-13.12l-4.83,3.56s6.9-7.36,20.47-7.56h.16s3-.44,8.37,1.09L212.88,190l13.71,0a73.19,73.19,0,0,1,14.88.8l7.32,3.2-4.8-.44a12.58,12.58,0,0,1,5.29,3.2s-4.5-2.57-5.63-1.73c0,0,6.13,4.35,6.32,5.54,0,0-10.59-5.08-13-4.29a59.85,59.85,0,0,1,5.89,2.56L235,197.56s5.58,1.81,6.13,3l-8.31-1.83,3.6,2.37-6.61-2.75,2.12,3-9.78-4.16,6.67,3.77L216.07,198l1.64,1.93s-4.81-.79-5.1-.79S199.83,193.76,177.47,207.85Z"/><path class="cls-5" d="M271.28,254s7.71,4.75,3.26,22.54c0,0,1.28,31-24.57,49C250,325.58,269.35,259.34,271.28,254Z"/><path d="M272.21,258.1s2.33,3,2.67,5.44C274.88,263.54,272.51,259,272.21,258.1Z"/><path d="M272.21,260.57s.5,3.61,1.88,4.21c0,0-1,1.13-.54,2.07,0,0-.35-1.09-.84-.89l-.5-1.09S271.62,260.62,272.21,260.57Z"/><path d="M278.39,259.44c.65.15,1.26.47,1.91.66a14.86,14.86,0,0,0,2,.43,17.24,17.24,0,0,0,4.06.06,21.23,21.23,0,0,0,4-.89c.65-.2,1.27-.47,1.9-.71l1.81-.89a30.85,30.85,0,0,1-7.71,2,18.26,18.26,0,0,1-4,0A30.21,30.21,0,0,1,278.39,259.44Z"/><path d="M278,262.8c1.12,1.13,2.35,2.13,3.57,3.14a45.84,45.84,0,0,0,3.84,2.79c-1.12-1.13-2.35-2.13-3.57-3.14A45.84,45.84,0,0,0,278,262.8Z"/><path d="M276.42,266.85c.82,1,1.62,2.09,2.41,3.15s1.58,2.11,2.31,3.21a37.25,37.25,0,0,1,2.07,3.35,14.51,14.51,0,0,1,1.51,3.64,11.5,11.5,0,0,0-1.2-3.79,28.28,28.28,0,0,0-2-3.45A42.46,42.46,0,0,0,276.42,266.85Z"/><path d="M275.92,269.22a24.24,24.24,0,0,1,1.28,6.22,28.61,28.61,0,0,1-.16,6.34,30.5,30.5,0,0,1-1.46,6.16,40.76,40.76,0,0,1-2.56,5.83c.53-.92,1.11-1.82,1.6-2.77a31.86,31.86,0,0,0,1.28-2.94,28.34,28.34,0,0,0,1.58-6.23,27,27,0,0,0,.06-6.42A21,21,0,0,0,275.92,269.22Z"/><path d="M275.4,275.5a48.12,48.12,0,0,0,1,8.37,21.42,21.42,0,0,0,2.93,7.87,18.8,18.8,0,0,1-1.52-3.89c-.39-1.34-.72-2.7-1-4.07s-.52-2.74-.75-4.12S275.59,276.89,275.4,275.5Z"/><path d="M275.92,272.31a22.69,22.69,0,0,0,4.35,4.35,10.36,10.36,0,0,0,5.61,2.4,9.64,9.64,0,0,1-2.82-1.08,17.81,17.81,0,0,1-2.52-1.68c-.82-.59-1.59-1.25-2.36-1.92S276.66,273,275.92,272.31Z"/><path d="M276.42,270.24a43.58,43.58,0,0,0,4.75,4,30.85,30.85,0,0,0,2.61,1.71,5,5,0,0,0,2.94.93,2.41,2.41,0,0,1-1.44-.43,13.63,13.63,0,0,1-1.32-.8c-.86-.56-1.71-1.15-2.53-1.77C279.74,272.71,278.12,271.43,276.42,270.24Z"/><path d="M277.51,274.69a38.14,38.14,0,0,0,1.73,7.2,36.45,36.45,0,0,0,1.4,3.44,23.82,23.82,0,0,0,1.83,3.22A76.28,76.28,0,0,1,277.51,274.69Z"/><path d="M280.57,258.1a62,62,0,0,0,7.44,8.74,35.37,35.37,0,0,0,4.43,3.67,12.41,12.41,0,0,0,5.23,2.32,13.86,13.86,0,0,1-5-2.59,41.32,41.32,0,0,1-4.32-3.72c-1.38-1.31-2.69-2.7-4-4.1S281.79,259.57,280.57,258.1Z"/><path d="M280,258.45c2.41,1.22,4.88,2.28,7.35,3.36s5,2.06,7.51,2.94c-2.4-1.22-4.87-2.28-7.34-3.35S282.53,259.33,280,258.45Z"/><path d="M263,318.08a13.21,13.21,0,0,1-1.89,3.63,17.32,17.32,0,0,1-2.74,3,22.21,22.21,0,0,1-3.31,2.38,37.21,37.21,0,0,1-3.68,1.85l2-.67c.63-.3,1.28-.55,1.88-.88a19.68,19.68,0,0,0,3.44-2.34A13.13,13.13,0,0,0,263,318.08Z"/><path d="M265.42,318.36a19.65,19.65,0,0,1-1.67,6.13,15.14,15.14,0,0,1-9.2,8.13,21.71,21.71,0,0,1-3.08.78c-1.05.17-2.11.25-3.18.38,1.07-.06,2.14-.06,3.21-.16a22.35,22.35,0,0,0,3.15-.68,14.8,14.8,0,0,0,5.65-3.08A15.85,15.85,0,0,0,265.42,318.36Z"/><path d="M252.22,328.14a37,37,0,0,0,.15,6.49,21.89,21.89,0,0,0,.61,3.21,4.56,4.56,0,0,0,1.64,2.76,5.15,5.15,0,0,1-1.31-2.85,27.89,27.89,0,0,1-.5-3.17C252.54,332.45,252.42,330.3,252.22,328.14Z"/><path d="M249.63,329.46c0,3.15.08,6.29.12,9.44l.09,4.71c0,.79,0,1.57,0,2.36a9.67,9.67,0,0,1-.21,2.34,18.08,18.08,0,0,0,.56-4.69c.05-1.58,0-3.16,0-4.73C250.1,335.74,250,332.59,249.63,329.46Z"/><path d="M245.33,340.13c.09,2.33.26,4.64.31,7,.05,1.16.05,2.32,0,3.47a18.28,18.28,0,0,1-.34,3.46,19.84,19.84,0,0,0,.75-6.94A46.3,46.3,0,0,0,245.33,340.13Z"/><path d="M261.27,305.75a6.37,6.37,0,0,1-.27,4.65,8.05,8.05,0,0,1-1.31,2,18.72,18.72,0,0,1-1.76,1.68l1.05-.64c.32-.27.66-.51.95-.8a7.33,7.33,0,0,0,1.47-2,6,6,0,0,0,.51-2.46A4.9,4.9,0,0,0,261.27,305.75Z"/><path d="M259.84,308.86a22.61,22.61,0,0,1-.41,2.35,15.65,15.65,0,0,1-.68,2.24,10.72,10.72,0,0,1-1.06,2.08,9.66,9.66,0,0,1-1.54,1.79,6.73,6.73,0,0,0,1.82-1.59,9.39,9.39,0,0,0,1.19-2.12A10.88,10.88,0,0,0,259.84,308.86Z"/><path d="M265.1,295.87a12.71,12.71,0,0,0,0,4.71,12.71,12.71,0,0,0,0-4.71Z"/><path d="M196.58,226.63c1,.84,2.12,1.42,2.67,2.62a1.64,1.64,0,0,0-.22-1,3.3,3.3,0,0,0-.65-.79A3.74,3.74,0,0,0,196.58,226.63Z"/><path d="M174.15,294.84a13.73,13.73,0,0,0-3.43,2.65"/><path d="M174.15,294.84a5.46,5.46,0,0,0-2,1,6.74,6.74,0,0,0-1.48,1.62A35.57,35.57,0,0,0,174.15,294.84Z"/><path class="cls-2" d="M74.86,109.48S24.24,101.18.72,132.61c0,0,17-23.13,71.37-21,0,0-29.86,6.73-43.89,21.95,0,0,24.32-17.2,43.69-18.59,0,0-55.16,24.72-53.78,41.13,0,0,3.36-14,38.75-23.83,0,0-30.44,13.35-31.23,33.32,0,0,6.72-14.24,20.36-18.39,0,0-18,22.34-21.75,34.8,0,0,9.05-16,15.1-16.81,0,0-13.91,24.12-13.71,35,0,0,3.95-13.45,9.49-11.67,0,0-9.89,19.38-6.92,31.83,0,0,1.78-8.75,4.74-8.52,0,0-3,18-1.58,24.54,0,0,.59-9.3,3.36-9.89L35.91,241,39.34,234S58.45,117.39,84.15,109.87Z"/><path class="cls-3" d="M130.81,228.33s-6.77-10.06-18-12.14-21.5,7-21.5,7-3,5-.75,8.15,16.91,1.93,16.91,1.93,18.51-4.45,23.38-4.37C130.81,228.87,131.24,228.93,130.81,228.33Z"/><path class="cls-4" d="M116.42,225.43a8.77,8.77,0,0,1-8.06,7.47c-3,.31-8.15-2.53-8.15-7.47a8.11,8.11,0,0,1,8.11-8.1C112.79,217.33,117.13,221,116.42,225.43Z"/><path d="M85.71,233.76s-.25-6.82,4-11,10.78-6.05,10.78-6.05a15.83,15.83,0,0,1,4.85-.89l-5.47,1.89s-8.1,3.22-9.3,6.23-2,5.55-1.17,7.2l-1.63-.67A5.13,5.13,0,0,0,85.71,233.76Z"/><path d="M119.14,217.33a16,16,0,0,0-4.36-2.22A25.09,25.09,0,0,0,110,214a33.45,33.45,0,0,0-4.89-.38c-1.64,0-3.28.06-4.93.18l2.45-.37c.82-.05,1.65-.13,2.47-.16a30.45,30.45,0,0,1,5,.29,23.5,23.5,0,0,1,4.81,1.26A13.64,13.64,0,0,1,119.14,217.33Z"/><path d="M121.66,210a68.79,68.79,0,0,0-10.42-.88,45.09,45.09,0,0,0-10.37,1.06,24.25,24.25,0,0,0-9.46,4.13,18.19,18.19,0,0,0-3.61,3.72,19.92,19.92,0,0,0-2.37,4.64A20.12,20.12,0,0,1,87.62,218a18,18,0,0,1,3.61-3.83,24.38,24.38,0,0,1,9.55-4.33,45.41,45.41,0,0,1,10.46-.92A52.89,52.89,0,0,1,121.66,210Z"/><path d="M97.94,208c-1.18.38-2.33.84-3.46,1.33a29.87,29.87,0,0,0-3.3,1.65,16.29,16.29,0,0,0-5.48,4.83,11.05,11.05,0,0,1,2.24-3,17.79,17.79,0,0,1,3-2.22A22.82,22.82,0,0,1,97.94,208Z"/><path class="cls-6" d="M163.08,330.14l5.54.69s2.08-3.71,5.34-3.36c0,0,22.14,5.6,25.25,10.79l.37,3s.1.35-4.36,4.21c-3,2.6-3.85,4.15-7.58,6.23a27.79,27.79,0,0,1-11.12,3.71c-6.56.54-12.53.89-12.53.89h0s-6.1-.35-12.66-.89a27.79,27.79,0,0,1-11.12-3.71c-3.73-2.08-4.59-3.63-7.58-6.23-4.46-3.86-6.13-4.21-6.13-4.21l.37-3c3.12-5.19,25.36-10.79,25.36-10.79,3.26-.35,5.34,3.36,5.34,3.36l5.48-.69Z"/><path class="cls-7" d="M143.24,213.83c-2.81-1.84-14.67-8.58-37.47-8.07-26.39.59-36,7.37-36,7.37A20.25,20.25,0,0,0,65,222.64c-.08.35-.15.7-.21,1.07a26.79,26.79,0,0,0,.42,10.6c3.16,13.59,4.4,15.27,8.94,20.7s20,6.18,20,6.18,17.79,1.87,33.07-1.43,17.49-16.51,17.49-16.51,2.94-10.3,2.57-19c-.17-4.12-1.09-7.87-3.41-10C143.9,214.29,143.68,214.12,143.24,213.83Z"/><path class="cls-7" d="M261.11,222.49a20.14,20.14,0,0,0-4.69-9.36s-9.64-6.78-36-7.37c-22.67-.51-34.52,6.15-37.42,8-.48.31-.71.49-.71.49-2.33,2.11-3.24,5.87-3.41,10-.36,8.67,2.57,19,2.57,19s2.22,13.21,17.49,16.51S232,261.19,232,261.19s15.47-.74,20-6.18,5.78-7.11,8.94-20.7a26.79,26.79,0,0,0,.42-10.6C261.29,223.29,261.21,222.89,261.11,222.49Z"/><path class="cls-8" d="M273.25,206.73c-16.9-6.68-71.62-5.49-82.44-.75-10.21,4.48-25.82,5.5-27.57,5.6h-.16s-16.9-.86-27.73-5.61-65.54-5.93-82.44.75c0,0-2.69-.51-2.12,11.71,0,.52.05,1.06.09,1.63,0,0,0,0,0,0,.06.3.49,2.38.89,5.28v0a62.53,62.53,0,0,1,.63,12.89h0a.32.32,0,0,0,0,.19c.05.14.19.33.6.54a5.24,5.24,0,0,0,1,.39h0c.41.11.91.22,1.55.33l.41.06s0-.31,0-.85h0c0-1.13-.1-3.22-.2-5.51-.08-1.73-.17-3.57-.29-5.18a37.22,37.22,0,0,0-.43-4.09,1.65,1.65,0,0,0-.12-.43h0c0,.08.15.19.26.33A25.83,25.83,0,0,1,58,228.68l.18.41c.27.59.53,1.23.77,1.91a1.52,1.52,0,0,0,.09.25,25.71,25.71,0,0,1,1,3.64l.06.34.74,2.09L63.13,244h0l0,0,.56,1.57,1.69,4.78a19.89,19.89,0,0,0,14.1,11.79,109.76,109.76,0,0,0,34.15,2.27c19.58-1.63,23-3.95,23-3.95s6.32-.59,10.57-13,5.34-21.77,9.69-22.65a27.33,27.33,0,0,1,3.28-.49l2.8,0h0l.09,0,3.11,0a28.46,28.46,0,0,1,3.07.47c4.35.88,5.44,10.25,9.69,22.65s10.57,13,10.57,13,3.41,2.32,23,3.95a109.76,109.76,0,0,0,34.15-2.27,19.89,19.89,0,0,0,14.1-11.79l5.37-15.16a26,26,0,0,1,5.09-11.48c-.68,1.46-1.08,16.09-1.08,16.09,4.1-.59,3.61-1.53,3.61-1.53-.65-8,1.53-18.24,1.53-18.24C276.17,206.18,273.25,206.73,273.25,206.73ZM144.74,243.25s-2.22,13.21-17.49,16.51-33.07,1.43-33.07,1.43-15.47-.74-20-6.18-5.78-7.11-8.94-20.7a26.79,26.79,0,0,1-.42-10.6c.06-.37.13-.72.21-1.07a20.25,20.25,0,0,1,4.73-9.51s9.64-6.78,36-7.37c22.8-.51,34.66,6.23,37.47,8.07.44.29.66.46.66.46,2.32,2.11,3.24,5.86,3.41,10C147.68,233,144.74,243.25,144.74,243.25Zm116.2-8.94c-3.16,13.59-4.4,15.27-8.94,20.7s-20,6.18-20,6.18-17.79,1.87-33.07-1.43-17.49-16.51-17.49-16.51-2.93-10.29-2.57-19c.17-4.13,1.08-7.89,3.41-10,0,0,.23-.18.71-.49,2.9-1.89,14.75-8.55,37.42-8,26.39.59,36,7.37,36,7.37a20.14,20.14,0,0,1,4.69,9.36c.1.4.18.8.25,1.22A26.79,26.79,0,0,1,260.94,234.31Z"/><path d="M163,21s-2.86-6.53-14.92-10.19c0,0,7.21,3.07,9.58,9.3,0,0-14.92-9.79-28.56-8.31,0,0,6.72,1.88,7.21,3.36a62,62,0,0,0-12.85.75s11.07,1.13,13.25,3.31c0,0-8-1.19-11.47.29,0,0,7.32.4,11.07,3.46,0,0-12.75-.69-18.19,3.56,0,0,7.91-3.56,14.34-1.18,0,0-6.43.49-9.39,5.63,0,0,8.3-7.51,14.13-4.25a10.13,10.13,0,0,1,4.25,3.46s-5.63-2.47-8.4-.59c0,0,4.75.19,6.33,2.22,0,0-4.65.4-5.64,2.52,0,0,7.17-.79,7.91.35,0,0-3.9,1-4.25,4.3,0,0,4.95-2.44,7.62-1a187,187,0,0,1,11.46,23.64s-2.89.14-2.45,5.09c0,0,2.15,5-1.46,6.92,0,0-10.87-.45-16.95,3.45,0,0-35,11.28-43.59,20.62a60.79,60.79,0,0,1-6.13,5.73c-3.41,2.44-9.38,7.71-15.84,16-8.71,11.25-18.31,28.08-23.7,51.07,0,0-7.52,38.45-7,51.11v21.65l2-9.33.59,21.88,2.77-8.8,1.58,8.8,1.09-3,1.38,10.58s4.15-8.9,6-9.49-5.64,38.7,4,57.53c0,0,12.46,14.83,18.09,16.61,0,0-13.34-15-14.6-20.09,0,0-4.15-13.64-3.56-22.84,0,0,2.15,12.83,7.49,22.17L71,314.72l-5.86-15.49-2.67-12.9s6.23,17.72,8.45,21.42S67.69,295,66.28,286l-2.74-38.63-.44-3s-5.2-18.78-8.31-20.41c0,0,2.37,15,1.19,16.21s-3.61-1.32-3.61-1.32-.2-14.79-1.53-18.45-.15-13.19,1.18-13.69S67,202.8,67,202.8s2.27-16.61,4.15-21.46S74.16,174,74.16,174l-3.85,2.27s2.17-11.27,4-12.16l-3.26,1.09,4.35-17.4A111.57,111.57,0,0,1,80.69,136c1.63-3,6-9.24,8.5-11.17,9.15-7.13,11.47-7.31,14.43-6.42,0,0-4.94-3-10.28-1.68,0,0,10.78-3,16.81-.3l-5.34-5.64s9.29,2.67,11.66,4.85l-6.3-7.89s7.42,1.26,9.27,4.23l-1.71-8.75,6.9,5.27.24-7.75,4.78,5.25L128,99.57l6.37,6.82-2.22-8.16,6.67,5.64-.26-8.32,6.05,10,.14-9.06s5.93,10.69,9.34,10.92l-3.92-9.52L158,108l-1.12-6.5,4.36,5.79,1.78-4.54V21Z"/><path d="M162.16,21.19a.53.53,0,0,0,0,.12s0,0,0,0l0-.11L162,21c-.08-.15-.19-.3-.28-.45s-.41-.58-.64-.86A17.43,17.43,0,0,0,159.58,18a22.72,22.72,0,0,0-3.52-2.71,30.63,30.63,0,0,0-4-2.09,42.22,42.22,0,0,0-4.24-1.57l.6-1.64a23,23,0,0,1,3.12,1.74,24.54,24.54,0,0,1,2.8,2.19,15.91,15.91,0,0,1,4.14,5.86l1,2.46-2.25-1.43a63.56,63.56,0,0,0-13.47-6.28,35.75,35.75,0,0,0-14.53-1.9l.13-1.66c1.34.38,2.62.8,3.92,1.31a18.11,18.11,0,0,1,1.93.86,8.17,8.17,0,0,1,1,.58,2.5,2.5,0,0,1,1,1.16l.49,1.16L136.29,16a58.85,58.85,0,0,0-12.65.72l-.06-1.65c2.32.25,4.6.59,6.89,1,1.14.24,2.28.5,3.42.84a9.06,9.06,0,0,1,3.43,1.67l2,1.78L136.62,20A48.68,48.68,0,0,0,131,19.6a25.72,25.72,0,0,0-2.79.11,9.45,9.45,0,0,0-2.58.57l-.27-1.57a31.36,31.36,0,0,1,6,1,15.62,15.62,0,0,1,5.58,2.64l2,1.53-2.5-.1a52.9,52.9,0,0,0-9.24.45,30,30,0,0,0-4.46,1,13,13,0,0,0-4,1.94l-.81-1.36a26.72,26.72,0,0,1,3.6-1.21,27.43,27.43,0,0,1,3.72-.71,16.89,16.89,0,0,1,7.61.73L136,25.78l-3.45.36a13.53,13.53,0,0,0-2.59.57,13.33,13.33,0,0,0-2.45,1.06,10.59,10.59,0,0,0-2.12,1.57,9.7,9.7,0,0,0-1.62,2l-1.2-1A27.76,27.76,0,0,1,125.81,28a22.12,22.12,0,0,1,3.58-1.87,12.71,12.71,0,0,1,4-1,7.64,7.64,0,0,1,4.19.9l-.1-.05a9.5,9.5,0,0,1,1.35.7,11.63,11.63,0,0,1,1.22.86,10.63,10.63,0,0,1,2,2.19l1.47,2.12-2.42-1a17.09,17.09,0,0,0-4-1.13,5.53,5.53,0,0,0-3.68.47l-.4-1.39a16.45,16.45,0,0,1,3.56.59A6.44,6.44,0,0,1,140,31.37l.91,1.06-1.44.15a13.33,13.33,0,0,0-2.93.64,3.66,3.66,0,0,0-2.09,1.45l-.76-1.07c1.36-.14,2.71-.23,4.08-.26.69,0,1.38,0,2.09,0a8.88,8.88,0,0,1,1.09.15,2.15,2.15,0,0,1,1.36.75l.68.8-1.12.33a7.63,7.63,0,0,0-1.31.55,6.33,6.33,0,0,0-1.16.81,3.67,3.67,0,0,0-1.23,2.3l-1.07-.75A17.13,17.13,0,0,1,141,37a6.73,6.73,0,0,1,4.37.33l.18.08.1.19c2.24,3.82,4.23,7.73,6.15,11.69s3.68,8,5.35,12l.36.88-1,.11a1.87,1.87,0,0,0-.92.48,2.51,2.51,0,0,0-.62,1,6.93,6.93,0,0,0-.24,2.79l-.05-.21a10.8,10.8,0,0,1,.57,2,8,8,0,0,1,.08,2.14,5,5,0,0,1-.73,2.13,4.52,4.52,0,0,1-1.71,1.52l-.16.09h-.2A46.52,46.52,0,0,0,144,75a22.18,22.18,0,0,0-8,2.73l-.08,0-.09,0c-8.26,2.73-16.45,5.77-24.42,9.25a120.32,120.32,0,0,0-11.65,5.8,43.8,43.8,0,0,0-5.35,3.59,23.73,23.73,0,0,0-2.31,2.19c-.76.81-1.55,1.58-2.34,2.34C75.73,111.45,65,125.58,57.41,141.21a139.23,139.23,0,0,0-9.12,24.39c-.55,2.1-1.14,4.2-1.54,6.32l-1.2,6.43q-1.17,6.43-2.23,12.89C42,199.85,40.59,208.5,40,217.16c-.19,8.65-.07,17.45-.12,26.17l-1.11-.12,2-9.33,1-4.54L41.9,234l.58,21.88-1.06-.14,2.78-8.8.65-2.06.38,2.13,1.58,8.8-1-.09,1.09-3,.74-2,.28,2.12,1.37,10.57-1-.15a60.26,60.26,0,0,1,4.25-7.7,8.34,8.34,0,0,1,1.54-1.75l.3-.2.18-.08a.63.63,0,0,1,.16,0,.67.67,0,0,1,.35,0,.79.79,0,0,1,.43.55,3,3,0,0,1,.07.34,9.31,9.31,0,0,1,0,1.16c0,1.49-.14,2.93-.24,4.39-.45,5.79-.9,11.58-1,17.38a128.63,128.63,0,0,0,.55,17.34c.65,5.72,1.77,11.49,4.34,16.62l-.06-.09c2.66,3.12,5.44,6.17,8.34,9.07,1.46,1.44,3,2.85,4.51,4.17a18.63,18.63,0,0,0,5,3.24l-.48.73c-2.66-3-5.24-6.1-7.72-9.27-1.24-1.58-2.45-3.19-3.6-4.85A31,31,0,0,1,62.14,309a95.7,95.7,0,0,1-2.85-11.78,53,53,0,0,1-1-12.07l.18-3.58.66,3.53a85.32,85.32,0,0,0,4.33,15.44,44.82,44.82,0,0,0,3.47,7.18l4.42,6.74-.71.36-5.85-15.5v-.05L62.12,286.4l.74-.2q2,5.51,4,11a86.58,86.58,0,0,0,4.56,10.65c0,.07.2.2,0,.12,0,0-.16,0-.22,0a.32.32,0,0,0-.13.13s0,.06,0,0V308c0-.21-.06-.45-.1-.68-.09-.46-.2-.94-.31-1.41L70,303.09l-1.49-5.65c-1-3.77-1.94-7.56-2.57-11.43h0v0l-2.72-38.63v0l-.43-3v0c-1-3.55-2.1-7.09-3.33-10.58-.62-1.74-1.27-3.47-2-5.15-.38-.84-.77-1.67-1.22-2.47a5.7,5.7,0,0,0-1.59-2l.45-.33c.51,3.4,1,6.8,1.29,10.22a30,30,0,0,1,.15,5.2,2.69,2.69,0,0,1-.15.69,1,1,0,0,1-.23.39,1.5,1.5,0,0,1-.33.23,1.79,1.79,0,0,1-1.49,0A7.16,7.16,0,0,1,52.15,239l-.08-.08v-.12c-.07-4-.21-8-.53-12a37.85,37.85,0,0,0-.83-5.88,16.8,16.8,0,0,1-.73-6,31.31,31.31,0,0,1,.71-6,11.29,11.29,0,0,1,.45-1.47,3.09,3.09,0,0,1,.4-.73,1.13,1.13,0,0,1,.41-.32l.37-.12,2.91-.78,11.65-2.94-.19.22c.7-4.92,1.47-9.83,2.44-14.72A45.57,45.57,0,0,1,71,180.81c.91-2.32,1.85-4.62,2.9-6.89l.35.32-3.86,2.27-.47.28.11-.53c.43-2.13.91-4.24,1.48-6.33.29-1.05.61-2.09,1-3.11.19-.51.4-1,.64-1.52a3.12,3.12,0,0,1,1.09-1.37l.18.44-3.27,1.08-.4.13.11-.4,4.36-17.4h0c1.3-3.4,2.69-6.75,4.29-10a53.38,53.38,0,0,1,5.9-9.16,24.82,24.82,0,0,1,3.73-4c1.44-1.11,2.89-2.2,4.38-3.24a29.58,29.58,0,0,1,4.72-2.76,8.4,8.4,0,0,1,2.67-.73,7.31,7.31,0,0,1,2.75.35l-.16.35a16.48,16.48,0,0,0-4.93-1.75,13.46,13.46,0,0,0-2.61-.22,12,12,0,0,0-2.6.3l-.09-.35a45.77,45.77,0,0,1,8.45-1.35,19.45,19.45,0,0,1,8.48,1.07l-.2.28-5.34-5.64-.43-.46.61.18q3,.9,6,2c1,.38,2,.78,2.94,1.22a11.92,11.92,0,0,1,2.75,1.66l-.24.22-6.29-7.89-.27-.33.42.08a29,29,0,0,1,5,1.39,14.71,14.71,0,0,1,2.37,1.13,5.89,5.89,0,0,1,2,1.78l-.28.11-1.7-8.75-.08-.39.31.24,6.9,5.27-.24.11.25-7.75v-.34l.24.25,4.77,5.26-.24.12-1.6-6.4-.13-.5.36.38,6.37,6.82-.22.12-2.22-8.15-.1-.39.3.26,6.67,5.64-.19.09-.26-8.31v-.43l.22.36,6,10-.2,0,.15-9.07v-.36l.18.32a63.12,63.12,0,0,0,4,6.16,26,26,0,0,0,2.33,2.8,5.76,5.76,0,0,0,3,1.92l-.08.12-3.91-9.52-.23-.53.36.46,7.8,10.15-.12,0-1.12-6.5-.05-.25.16.21,4.36,5.79h-.1l1.78-4.54v0L163,21Zm.87-1.88V21l.05,81.75h0l-1.77,4.54,0,.1-.06-.08-4.37-5.79.11,0,1.13,6.5,0,.27-.17-.22-7.81-10.14.13-.08,3.93,9.51,0,.14-.14,0a5.85,5.85,0,0,1-3.09-2,27.44,27.44,0,0,1-2.35-2.82,63.6,63.6,0,0,1-4-6.18l.18,0-.14,9.07v.36l-.19-.31-6.05-10,.2-.06.27,8.32v.26l-.2-.17-6.68-5.63.2-.13,2.23,8.16.14.5-.36-.38-6.38-6.82.23-.12,1.61,6.4.13.52-.37-.4-4.77-5.25.24-.09-.24,7.75v.28l-.22-.17-6.9-5.26.24-.15,1.71,8.75.15.8-.43-.69a5.58,5.58,0,0,0-1.87-1.67,14.55,14.55,0,0,0-2.32-1.11,29.62,29.62,0,0,0-5-1.37l.16-.25,6.3,7.87-.24.23a11.93,11.93,0,0,0-2.67-1.59c-1-.44-1.93-.84-2.92-1.22-2-.73-4-1.4-6-2l.17-.28,5.34,5.63.57.59-.76-.31a19,19,0,0,0-8.32-1,45.62,45.62,0,0,0-8.37,1.34l-.09-.35A12.05,12.05,0,0,1,96,116.2a14.12,14.12,0,0,1,2.68.22,17,17,0,0,1,5.06,1.79l1.57.87-1.72-.52a6.86,6.86,0,0,0-2.61-.34,8,8,0,0,0-2.55.71,28.3,28.3,0,0,0-4.65,2.73c-1.48,1-2.92,2.12-4.35,3.23a24,24,0,0,0-3.65,3.94,53.18,53.18,0,0,0-5.85,9.1c-1.58,3.25-3,6.6-4.25,10v0l-4.34,17.4L71,165l3.26-1.09,1.45-.48-1.28.92A6.08,6.08,0,0,0,73,167c-.36,1-.67,2-1,3.08-.56,2.07-1,4.18-1.46,6.29l-.36-.26L74,173.82l.68-.4-.33.72c-1,2.24-2,4.54-2.88,6.85a45.27,45.27,0,0,0-1.88,7.15c-1,4.87-1.73,9.78-2.42,14.69l0,.18-.18,0L55.37,206l-2.89.79-.34.11A.5.5,0,0,0,52,207a3.63,3.63,0,0,0-.32.59,12.61,12.61,0,0,0-.42,1.4,31.48,31.48,0,0,0-.69,5.9,16,16,0,0,0,.72,5.84,37.24,37.24,0,0,1,.85,6c.33,4,.48,8,.55,12l-.08-.2a6.42,6.42,0,0,0,2,1.41,1.22,1.22,0,0,0,1,.06.62.62,0,0,0,.19-.14.46.46,0,0,0,.08-.16,2.21,2.21,0,0,0,.12-.56,30.75,30.75,0,0,0-.16-5.06c-.32-3.4-.79-6.8-1.31-10.18l-.1-.68.55.36a6,6,0,0,1,1.86,2.26c.46.82.86,1.66,1.24,2.52.75,1.7,1.41,3.44,2,5.19,1.24,3.51,2.34,7.05,3.35,10.62v0l.44,3h0v0l2.77,38.62v0c.62,3.82,1.59,7.59,2.56,11.36l1.5,5.65.72,2.83c.12.48.23,1,.32,1.45a5.94,5.94,0,0,1,.11.77,1.12,1.12,0,0,1,0,.25.62.62,0,0,1-.06.21.49.49,0,0,1-.19.19.43.43,0,0,1-.31,0c-.38-.19-.33-.28-.45-.4a41.07,41.07,0,0,1-2.51-5.35c-.74-1.81-1.45-3.63-2.15-5.45q-2.07-5.46-4-11l.73-.2,2.68,12.9v-.06l5.86,15.49L72.7,318l-2-3.06-4.44-6.75a45.65,45.65,0,0,1-3.55-7.31,86.93,86.93,0,0,1-4.4-15.6l.84,0a52.81,52.81,0,0,0,1,11.87A97.14,97.14,0,0,0,63,308.71c1.6,3.55,4.15,6.75,6.56,9.91s5.06,6.22,7.7,9.22l1.19,1.34-1.66-.61a18.86,18.86,0,0,1-5.34-3.4c-1.59-1.34-3.1-2.76-4.57-4.21-2.93-2.93-5.72-6-8.41-9.12l0,0,0-.05c-2.66-5.3-3.79-11.16-4.46-16.94a129.23,129.23,0,0,1-.58-17.48c.14-5.83.59-11.64,1-17.43.1-1.44.21-2.9.23-4.32a6.56,6.56,0,0,0,0-1,.75.75,0,0,0,0-.19c0-.06-.09,0,.15.09.45.06.17,0,.19.06l-.17.1a7.72,7.72,0,0,0-1.31,1.53,59.9,59.9,0,0,0-4.15,7.55l-.76,1.57-.22-1.72L46.85,253l1,.11-1.09,3-.67,1.83L45.77,256l-1.59-8.79,1,.06L42.45,256l-1,3.07-.09-3.22L40.79,234l1.1.1-2,9.33-1.13,5.33,0-5.45c0-8.74-.1-17.41.09-26.22.54-8.77,1.89-17.41,3.25-26,.7-4.31,1.45-8.62,2.22-12.92l1.19-6.44c.41-2.17,1-4.29,1.56-6.41a141.22,141.22,0,0,1,9.17-24.62,123.61,123.61,0,0,1,13.89-22.31A99.71,99.71,0,0,1,79,108.53c1.59-1.53,3.22-3,5-4.38.87-.71,1.79-1.31,2.57-2s1.61-1.44,2.39-2.18,1.56-1.51,2.3-2.29a24.23,24.23,0,0,1,2.43-2.31,45.49,45.49,0,0,1,5.51-3.72,120.83,120.83,0,0,1,11.78-5.88c8-3.52,16.23-6.58,24.55-9.34l-.17.08a23.76,23.76,0,0,1,8.49-3,47.84,47.84,0,0,1,8.87-.63l-.35.08A3.08,3.08,0,0,0,154,70.46a7.61,7.61,0,0,0-.54-3.45l0-.13v-.09a8.09,8.09,0,0,1,.31-3.39,3.84,3.84,0,0,1,1-1.6,3.08,3.08,0,0,1,1.84-.88l-.63,1q-2.49-6.06-5.33-12c-1.91-3.92-3.9-7.83-6.1-11.56l.29.27a5.43,5.43,0,0,0-3.39-.18,16.37,16.37,0,0,0-3.56,1.19l-1.21.56.14-1.3a5.16,5.16,0,0,1,1.71-3.24,7.92,7.92,0,0,1,1.45-1,8.3,8.3,0,0,1,1.64-.68l-.44,1.13c.14.12-.16-.09-.42-.11a6,6,0,0,0-.89-.12c-.63-.05-1.28-.05-1.94,0-1.31,0-2.64.12-4,.26l-1.34.14.58-1.21a3.76,3.76,0,0,1,1.35-1.46,7.33,7.33,0,0,1,1.6-.77,14.42,14.42,0,0,1,3.3-.72l-.53,1.22a5.21,5.21,0,0,0-2.56-1.41,15.05,15.05,0,0,0-3.2-.52l-2.38-.15,2-1.24a6.93,6.93,0,0,1,4.76-.72,18.09,18.09,0,0,1,4.38,1.24l-.94,1.13a8.75,8.75,0,0,0-1.74-1.86,9.88,9.88,0,0,0-1.05-.74,8.28,8.28,0,0,0-1.1-.57l-.06,0,0,0a6.11,6.11,0,0,0-3.35-.7,11.18,11.18,0,0,0-3.54.86,23.8,23.8,0,0,0-6.35,4l-4,3.39,2.75-4.36a10.94,10.94,0,0,1,1.89-2.39,11.51,11.51,0,0,1,2.43-1.8,15.18,15.18,0,0,1,2.74-1.2,14.72,14.72,0,0,1,3-.64l-.22,1.52a15.46,15.46,0,0,0-6.88-.62,25.93,25.93,0,0,0-6.85,1.8l-5.71,2.39,4.89-3.75a14.56,14.56,0,0,1,4.45-2.2,30.28,30.28,0,0,1,4.72-1.06,53.57,53.57,0,0,1,9.56-.48l-.56,1.44a14.3,14.3,0,0,0-5-2.32,30.74,30.74,0,0,0-5.61-.95l-3.44-.25L125,18.77a10.72,10.72,0,0,1,3-.69,27.19,27.19,0,0,1,3-.12,50.26,50.26,0,0,1,5.88.45l-.71,1.4a8.12,8.12,0,0,0-2.74-1.26c-1.06-.31-2.16-.57-3.27-.79-2.22-.44-4.49-.77-6.73-1l-5.83-.65,5.76-1a53.12,53.12,0,0,1,6.51-.72,64.81,64.81,0,0,1,6.54,0l-.85,1.11a1.89,1.89,0,0,0-.36-.32,5.58,5.58,0,0,0-.77-.45,17.69,17.69,0,0,0-1.76-.79c-1.22-.47-2.49-.89-3.75-1.25l-4.19-1.2L129,11a37.44,37.44,0,0,1,15.25,2,60,60,0,0,1,7.13,2.81,61.35,61.35,0,0,1,6.76,3.65l-1.29,1a14.21,14.21,0,0,0-3.69-5.2,23,23,0,0,0-2.59-2,21.06,21.06,0,0,0-2.84-1.59l.6-1.65a47.21,47.21,0,0,1,4.44,1.63,32.41,32.41,0,0,1,4.2,2.22,23.78,23.78,0,0,1,3.8,2.91,20,20,0,0,1,1.65,1.79A9.28,9.28,0,0,1,163,19.31Z"/><path class="cls-9" d="M163,410.58a135.57,135.57,0,0,1-15.55-3.39,34.34,34.34,0,0,1-9.78-4.55c-8.46-5.71-20.55-14.79-29.84-22.51A79.61,79.61,0,0,1,84.22,347.2c-6.77-17.79-12.77-38.95-12.77-38.95"/><path d="M148.8,71.62c-2-2.19-3.94-4.38-6-6.51s-4-4.31-6.05-6.41c-4.09-4.21-8.24-8.36-12.56-12.31a145.82,145.82,0,0,0-13.47-11.24,41.85,41.85,0,0,0-3.58-2.51c-1.25-.76-2.43-1.65-3.73-2.31s-2.55-1.44-3.86-2.09-2.71-1.11-4.07-1.7c5.8,1.3,11.08,4.26,16,7.49,2.52,1.56,4.81,3.45,7.18,5.23s4.55,3.79,6.7,5.82a162.75,162.75,0,0,1,12.36,12.7A161.09,161.09,0,0,1,148.8,71.62Z"/><path d="M145.16,73.25c-1.26-1.54-2.5-3.08-3.81-4.57s-2.56-3-3.9-4.45c-2.67-2.9-5.38-5.75-8.31-8.36a64.13,64.13,0,0,0-9.24-7.19,21.8,21.8,0,0,0-2.52-1.47A17.72,17.72,0,0,0,114.74,46,26.8,26.8,0,0,0,112,44.88c-1-.23-1.9-.49-2.87-.77,1,.09,2,.19,3,.31a27.16,27.16,0,0,1,2.93.71,17.42,17.42,0,0,1,2.82,1.07,20.69,20.69,0,0,1,2.73,1.3,47.46,47.46,0,0,1,9.75,7.06,77.37,77.37,0,0,1,14.82,18.69Z"/><path d="M126.56,79.77c-.55-2.71-1.2-5.4-2-8s-1.62-5.26-2.62-7.81a71.6,71.6,0,0,0-7.54-14.51A43.87,43.87,0,0,0,103,37.9a39.42,39.42,0,0,0-15.16-6,35.67,35.67,0,0,1,8.22,1.42,34.5,34.5,0,0,1,7.67,3.44,40.29,40.29,0,0,1,12.11,11.65,60.35,60.35,0,0,1,7.36,15.07A67.66,67.66,0,0,1,126.56,79.77Z"/><path d="M122.16,81.11c-3.39,0-6.77-.06-10.13.22a41.39,41.39,0,0,0-9.81,1.77,16.4,16.4,0,0,0-8,5.11,10.8,10.8,0,0,0-2,8.83l.54,2.52-1.94-1.63c-2.45-2.07-5-4.07-7.65-5.94A74.81,74.81,0,0,0,75,86.86c-2.82-1.42-5.91-2.79-9-2.54a4.48,4.48,0,0,0-3.63,2.49,11.91,11.91,0,0,0-1.06,4.68A11,11,0,0,1,62,86.63a5.21,5.21,0,0,1,1.52-2,5.49,5.49,0,0,1,2.37-1,11.47,11.47,0,0,1,5,.43,30.7,30.7,0,0,1,4.65,1.77,62.3,62.3,0,0,1,8.54,4.93A98.19,98.19,0,0,1,92,96.61l-1.4.89a12.13,12.13,0,0,1,2.27-10.35c2.27-2.91,5.64-4.49,8.94-5.48A42.12,42.12,0,0,1,112,80.38,70.38,70.38,0,0,1,122.16,81.11Z"/><path d="M90.57,98.31a47.54,47.54,0,0,0-9.33-1.23,46.05,46.05,0,0,0-9.32.42A40.11,40.11,0,0,0,54.75,104a44.31,44.31,0,0,0-12.58,13.45,78,78,0,0,0-7.74,17.11c.35-1.54.73-3.08,1.12-4.61s.94-3,1.45-4.53a61.15,61.15,0,0,1,4-8.67,41.61,41.61,0,0,1,12.76-14.22,38.39,38.39,0,0,1,18-6.42A44.52,44.52,0,0,1,90.57,98.31Z"/><path d="M99.47,92.22A151.4,151.4,0,0,0,86.3,75.53,129.79,129.79,0,0,0,70.8,61c-2.78-2.2-5.66-4.27-8.64-6.18a88.38,88.38,0,0,0-9.31-5.1,72.91,72.91,0,0,0-10-3.68,62.55,62.55,0,0,0-10.44-1.94A62.34,62.34,0,0,1,43,45.84a72.58,72.58,0,0,1,10,3.62,88.4,88.4,0,0,1,9.39,5.06q4.52,2.85,8.72,6.14A130.65,130.65,0,0,1,86.52,75.34,129.17,129.17,0,0,1,99.47,92.22Z"/><path d="M96.38,94.16a61,61,0,0,0-8.67-7,54.52,54.52,0,0,0-9.77-5.35c-6.81-2.87-14.61-3.94-21.71-1.66a31.28,31.28,0,0,0-9.78,5.13,47.52,47.52,0,0,0-7.77,8c-1.14,1.47-2.16,3-3.22,4.56s-1.94,3.18-2.82,4.82-1.75,3.29-2.55,5l-2.29,5.1A81.35,81.35,0,0,1,38.45,93,47,47,0,0,1,46.22,85a31.5,31.5,0,0,1,9.88-5.27c7.23-2.27,15.12-1.11,21.95,1.82A58,58,0,0,1,96.38,94.16Z"/><path d="M153.85,72.61c-1.9-3.25-3.91-6.44-6-9.6s-4.23-6.23-6.54-9.2A76.81,76.81,0,0,0,134,45.29a36.37,36.37,0,0,0-4.3-3.63,16.63,16.63,0,0,0-5-2.56c3.69.95,6.77,3.41,9.49,6a76.5,76.5,0,0,1,7.53,8.46c2.28,3,4.41,6.13,6.44,9.31S152.1,69.27,153.85,72.61Z"/><path d="M82.64,106.05A74.26,74.26,0,0,1,89.49,91.2,88.7,88.7,0,0,1,99,77.88l1.34-1.56,1.43-1.47c1-1,1.89-2,2.89-2.91,2-1.82,4-3.72,6.22-5.34,1.09-.82,2.11-1.74,3.26-2.48l3.41-2.28a36.54,36.54,0,0,1,3.52-2.08l3.59-2a96.2,96.2,0,0,0-13.6,9c-2.18,1.63-4.13,3.54-6.15,5.37-1,.94-1.89,2-2.84,2.93l-1.41,1.48-1.32,1.56a88.75,88.75,0,0,0-9.62,13.18A85.44,85.44,0,0,0,82.64,106.05Z"/><path d="M89,100.78A47.11,47.11,0,0,0,77.18,89.11a61.77,61.77,0,0,0-14.8-7.57,72.53,72.53,0,0,0-8-2.26,69.09,69.09,0,0,0-8.22-1.37A36.24,36.24,0,0,0,42,77.58l-4.18-.2c-2.78,0-5.57.12-8.36.17,2.79-.13,5.57-.32,8.36-.39l4.19.16a34.41,34.41,0,0,1,4.18.3,68,68,0,0,1,8.27,1.3,71.11,71.11,0,0,1,8.09,2.2,62.19,62.19,0,0,1,14.83,7.75A44,44,0,0,1,89,100.78Z"/><path d="M129.52,79.77a155.53,155.53,0,0,1-11.09-18.26,143.69,143.69,0,0,1-8.52-19.6A86.8,86.8,0,0,1,105.39,21a46.18,46.18,0,0,1,2.78-21,48.22,48.22,0,0,0-2.48,21,86.65,86.65,0,0,0,4.64,20.76,143.38,143.38,0,0,0,8.37,19.61A183.33,183.33,0,0,0,129.52,79.77Z"/><path d="M153.05,295.77s-6.28-7.37-11.57-2.92c0,0-1.88,1.09-1.53,2.92S146.82,291.61,153.05,295.77Z"/><path d="M138.52,267.05S122,293,134.42,300a19.23,19.23,0,0,1-3.32-12.75C131.58,280.75,136.25,271.55,138.52,267.05Z"/><path class="cls-10" d="M198.36,342.45a.82.82,0,0,0,0-.82A1.53,1.53,0,0,1,198.36,342.45Z"/><path class="cls-10" d="M191.92,341.63s-7,.08-9.46,0a21.5,21.5,0,0,0-6.23,1.34s-6.53.15-8.53.81a13.89,13.89,0,0,1-4.67.45c1.63.67,5-.19,5-.19l8.53-.81c4.82-1.56,5-.6,6.6-.52s8.71-.52,8.93-.85,5.15-1,5.15-1a1.2,1.2,0,0,1,1,.51,3.74,3.74,0,0,0-.32-.51C197.19,338.82,191.92,341.63,191.92,341.63Z"/><path class="cls-10" d="M198.4,341.63a.77.77,0,0,0-.1-.23A1.6,1.6,0,0,1,198.4,341.63Z"/><path class="cls-10" d="M127.71,342.45a1.48,1.48,0,0,1,0-.82A.82.82,0,0,0,127.71,342.45Z"/><path class="cls-10" d="M127.76,341.4a1.15,1.15,0,0,0-.1.23C127.69,341.55,127.73,341.47,127.76,341.4Z"/><path class="cls-10" d="M158.36,343.78c-2-.66-8.52-.81-8.52-.81a21.5,21.5,0,0,0-6.23-1.34c-2.45.08-9.46,0-9.46,0s-5.27-2.81-6.06-.74a3.27,3.27,0,0,0-.33.51,1.23,1.23,0,0,1,1-.51s4.93.63,5.15,1,7.38.92,8.94.85,1.78-1,6.59.52L158,344s3.41.86,5,.19A13.89,13.89,0,0,1,158.36,343.78Z"/><path d="M148.6,207.85s-5.68-11-15.57-13.12l4.83,3.56s-6.9-7.36-20.46-7.56h-.16s-3-.44-8.38,1.09l4.33-1.82-13.72,0a73.2,73.2,0,0,0-14.88.8L77.28,194l4.79-.44a12.64,12.64,0,0,0-5.29,3.2s4.5-2.57,5.64-1.73c0,0-6.13,4.35-6.33,5.54,0,0,10.59-5.08,13-4.29a59.9,59.9,0,0,0-5.88,2.56l7.91-1.32s-5.59,1.81-6.13,3l8.3-1.83L89.7,201.1l6.61-2.75-2.13,3,9.79-4.16-6.67,3.77L110,198,108.36,200s4.8-.79,5.1-.79S126.23,193.76,148.6,207.85Z"/><path class="cls-5" d="M54.79,254s-7.71,4.75-3.26,22.54c0,0-1.29,31,24.56,49C76.09,325.58,56.72,259.34,54.79,254Z"/><path d="M53.85,258.1s-2.32,3-2.67,5.44C51.18,263.54,53.55,259,53.85,258.1Z"/><path d="M53.85,260.57s-.49,3.61-1.88,4.21c0,0,1,1.13.55,2.07,0,0,.34-1.09.84-.89l.49-1.09S54.44,260.62,53.85,260.57Z"/><path d="M47.67,259.44c-.65.15-1.25.47-1.9.66a15,15,0,0,1-2,.43,17.23,17.23,0,0,1-4.06.06,21.23,21.23,0,0,1-4-.89c-.64-.2-1.26-.47-1.89-.71l-1.82-.89a30.92,30.92,0,0,0,7.72,2,18.17,18.17,0,0,0,4,0A29.89,29.89,0,0,0,47.67,259.44Z"/><path d="M48.07,262.8c-1.12,1.13-2.35,2.13-3.57,3.14a46,46,0,0,1-3.85,2.79c1.12-1.13,2.35-2.13,3.57-3.14A46,46,0,0,1,48.07,262.8Z"/><path d="M49.65,266.85c-.83,1-1.62,2.09-2.42,3.15s-1.58,2.11-2.3,3.21a35.2,35.2,0,0,0-2.08,3.35,14.86,14.86,0,0,0-1.5,3.64,11.27,11.27,0,0,1,1.2-3.79,28.21,28.21,0,0,1,2-3.45A42.53,42.53,0,0,1,49.65,266.85Z"/><path d="M50.14,269.22a24.66,24.66,0,0,0-1.27,6.22,28.61,28.61,0,0,0,.15,6.34,29.87,29.87,0,0,0,1.47,6.16A40.7,40.7,0,0,0,53,293.77c-.52-.92-1.1-1.82-1.59-2.77s-1-1.92-1.29-2.94a28.91,28.91,0,0,1-1.58-6.23,26.52,26.52,0,0,1,0-6.42A20.94,20.94,0,0,1,50.14,269.22Z"/><path d="M50.67,275.5a50.13,50.13,0,0,1-1,8.37,21.43,21.43,0,0,1-2.94,7.87,18.29,18.29,0,0,0,1.53-3.89,40.79,40.79,0,0,0,1-4.07c.3-1.36.53-2.74.75-4.12S50.47,276.89,50.67,275.5Z"/><path d="M50.14,272.31a22.92,22.92,0,0,1-4.34,4.35,10.39,10.39,0,0,1-5.62,2.4A9.7,9.7,0,0,0,43,278a19,19,0,0,0,2.52-1.68c.82-.59,1.59-1.25,2.35-1.92S49.41,273,50.14,272.31Z"/><path d="M49.65,270.24a44.55,44.55,0,0,1-4.75,4c-.85.6-1.71,1.19-2.62,1.71a5,5,0,0,1-2.94.93,2.44,2.44,0,0,0,1.45-.43,15,15,0,0,0,1.32-.8c.85-.56,1.7-1.15,2.53-1.77C46.32,272.71,47.94,271.43,49.65,270.24Z"/><path d="M48.55,274.69a37.39,37.39,0,0,1-1.73,7.2c-.41,1.16-.87,2.32-1.39,3.44a25,25,0,0,1-1.84,3.22A76.28,76.28,0,0,0,48.55,274.69Z"/><path d="M45.5,258.1a61.45,61.45,0,0,1-7.45,8.74,35.37,35.37,0,0,1-4.43,3.67,12.42,12.42,0,0,1-5.22,2.32,14,14,0,0,0,5-2.59,42.37,42.37,0,0,0,4.32-3.72c1.37-1.31,2.69-2.7,4-4.1S44.27,259.57,45.5,258.1Z"/><path d="M46.07,258.45c-2.41,1.22-4.88,2.28-7.34,3.36s-5,2.06-7.52,2.94c2.4-1.22,4.88-2.28,7.35-3.35S43.53,259.33,46.07,258.45Z"/><path d="M63.12,318.08A13.18,13.18,0,0,0,65,321.71a18.15,18.15,0,0,0,2.74,3,21.8,21.8,0,0,0,3.32,2.38,36,36,0,0,0,3.67,1.85l-2-.67c-.62-.3-1.27-.55-1.88-.88a20.06,20.06,0,0,1-3.44-2.34A13.17,13.17,0,0,1,63.12,318.08Z"/><path d="M60.65,318.36a19.12,19.12,0,0,0,1.67,6.13,14.76,14.76,0,0,0,3.74,5,15,15,0,0,0,5.46,3.09,21,21,0,0,0,3.08.78c1,.17,2.11.25,3.17.38-1.06-.06-2.14-.06-3.21-.16a22.66,22.66,0,0,1-3.15-.68,14.87,14.87,0,0,1-5.65-3.08A15.84,15.84,0,0,1,60.65,318.36Z"/><path d="M73.84,328.14a35.2,35.2,0,0,1-.15,6.49,21.87,21.87,0,0,1-.6,3.21,4.61,4.61,0,0,1-1.64,2.76,5.22,5.22,0,0,0,1.31-2.85,27.87,27.87,0,0,0,.49-3.17C73.52,332.45,73.64,330.3,73.84,328.14Z"/><path d="M76.44,329.46c0,3.15-.09,6.29-.13,9.44l-.09,4.71c0,.79,0,1.57,0,2.36a9.67,9.67,0,0,0,.22,2.34,18.08,18.08,0,0,1-.56-4.69c0-1.58,0-3.16,0-4.73C76,335.74,76.1,332.59,76.44,329.46Z"/><path d="M80.74,340.13c-.09,2.33-.27,4.64-.31,7-.06,1.16-.05,2.32,0,3.47a17.5,17.5,0,0,0,.34,3.46,19.85,19.85,0,0,1-.76-6.94A45.05,45.05,0,0,1,80.74,340.13Z"/><path d="M64.8,305.75a6.37,6.37,0,0,0,.27,4.65,8.05,8.05,0,0,0,1.31,2,18.59,18.59,0,0,0,1.75,1.68l-1-.64c-.31-.27-.65-.51-1-.8a7.76,7.76,0,0,1-1.47-2,6,6,0,0,1-.51-2.46A4.91,4.91,0,0,1,64.8,305.75Z"/><path d="M66.23,308.86a18.32,18.32,0,0,0,.41,2.35,14.47,14.47,0,0,0,.68,2.24,10.68,10.68,0,0,0,1.05,2.08,10.06,10.06,0,0,0,1.54,1.79,6.54,6.54,0,0,1-1.81-1.59,9.05,9.05,0,0,1-1.2-2.12A10.87,10.87,0,0,1,66.23,308.86Z"/><path d="M61,295.87a12.71,12.71,0,0,1,0,4.71,12.71,12.71,0,0,1,0-4.71Z"/><path d="M129.49,226.63c-1,.84-2.13,1.42-2.68,2.62a1.72,1.72,0,0,1,.22-1,3.12,3.12,0,0,1,.66-.79A3.74,3.74,0,0,1,129.49,226.63Z"/><path d="M151.92,294.84a13.61,13.61,0,0,1,3.42,2.65"/><path d="M151.92,294.84a5.5,5.5,0,0,1,1.94,1,6.36,6.36,0,0,1,1.48,1.62A35.43,35.43,0,0,1,151.92,294.84Z"/><path class="cls-11" d="M102.77,225.09c.3,1,2.48,2.1,1.45,2.1a2.34,2.34,0,1,1,0-4.67C105.51,222.52,102.39,223.85,102.77,225.09Z"/><path class="cls-11" d="M212.23,220.9s-4,5.24,1.49,7C213.72,227.94,209.7,226.39,212.23,220.9Z"/><path class="cls-11" d="M103,220.66s-3.83,2.67-1.53,6.8C101.49,227.46,99.88,223,103,220.66Z"/></g></g></svg>