<svg xmlns="http://www.w3.org/2000/svg" viewBox="0 0 369.37 102.48"><defs><style>.cls-1{fill:#757575;}.cls-2{fill:#fff;}</style></defs><title>blacktapioca</title><g id="Layer_2" data-name="Layer 2"><g id="Layer_1-2" data-name="Layer 1"><circle class="cls-1" cx="68.72" cy="50.79" r="50.79"/><circle class="cls-2" cx="93.81" cy="50.77" r="13.8"/><circle class="cls-2" cx="43.71" cy="50.77" r="13.8"/><path d="M68.72,0A50.79,50.79,0,0,0,17.93,50.79H119.52A50.79,50.79,0,0,0,68.72,0Z"/><polyline points="18.12 48.17 0 67.99 2.23 53.95 18.12 45.72"/><polyline points="16.81 47.79 6.58 33.96 7.84 43.76 16.81 49.5"/><rect class="cls-2" x="18.12" y="47.53" width="100.43" height="1.75"/><circle cx="193.85" cy="51.69" r="50.79"/><circle class="cls-2" cx="218.94" cy="51.67" r="13.8"/><circle class="cls-2" cx="168.84" cy="51.67" r="13.8"/><path d="M193.85.9a50.79,50.79,0,0,0-50.79,50.79H244.65A50.79,50.79,0,0,0,193.85.9Z"/><polyline points="143.25 49.07 125.13 68.89 127.36 54.84 143.25 46.62"/><polyline points="141.94 48.69 131.71 34.85 132.96 44.66 141.94 50.4"/><rect class="cls-2" x="143.25" y="48.42" width="100.43" height="1.75"/><circle cx="318.57" cy="50.81" r="50.79"/><circle class="cls-2" cx="343.66" cy="50.79" r="13.8"/><circle class="cls-2" cx="293.56" cy="50.79" r="13.8"/><path class="cls-1" d="M318.57,0a50.79,50.79,0,0,0-50.79,50.79H369.37A50.79,50.79,0,0,0,318.57,0Z"/><polyline class="cls-1" points="267.97 48.19 249.85 68.01 252.08 53.97 267.97 45.74"/><polyline class="cls-1" points="266.66 47.81 256.43 33.98 257.69 43.78 266.66 49.52"/><rect class="cls-2" x="267.97" y="47.55" width="100.43" height="1.75"/></g></g></svg>