<svg xmlns="http://www.w3.org/2000/svg" viewBox="0 0 310.26 314.02"><defs><style>.cls-1{fill:#0f1114;}.cls-2{fill:#fff;}.cls-3{fill:#ccc;}.cls-10,.cls-11,.cls-13,.cls-17,.cls-19,.cls-20,.cls-21,.cls-22,.cls-4{fill:none;}.cls-11,.cls-4{stroke:#bcbcbc;}.cls-10,.cls-11,.cls-13,.cls-17,.cls-19,.cls-20,.cls-22,.cls-4,.cls-6{stroke-miterlimit:10;}.cls-17,.cls-4,.cls-6{stroke-width:0.35px;}.cls-5{fill:#231f20;}.cls-18,.cls-24,.cls-6,.cls-7{fill:#bcbcbc;}.cls-6{stroke:#231f20;}.cls-12,.cls-18,.cls-6{opacity:0.47;}.cls-12,.cls-18,.cls-24,.cls-6,.cls-8{isolation:isolate;}.cls-8,.cls-9{fill:#383838;}.cls-10{stroke:#d3d3d3;}.cls-10,.cls-19{stroke-width:2.81px;}.cls-11,.cls-13,.cls-20,.cls-22{stroke-width:1.4px;}.cls-13{stroke:#686868;}.cls-14{fill:#adadad;}.cls-15{fill:#b7b7b7;}.cls-16{fill:#2b2b2b;}.cls-17,.cls-19,.cls-20{stroke:#fff;}.cls-22{stroke:#f9f9f9;}.cls-23{fill:#aaa;}.cls-25{fill:#efefef;}</style></defs><title>Vader</title><g id="Layer_2" data-name="Layer 2"><g id="Layer_1-2" data-name="Layer 1"><path class="cls-1" d="M168.75,3.59S225.44,2,241.47,33.31c0,0,18.49,33.35,19.08,64.24l2.34,32.1L309,243.23s5.49,10.06-6.44,15.79-19.07,7.14-19.07,7.14,11.81-8.08,6.78-20.48-29.6-96.93-29.6-96.93-5.73-18.56-13.57-26.28-27.5-22.78-50-24.81c0,0-8.74-2-16.38,2.34s-15,10.3-25.45,2.35L155,0Z"/><path class="cls-1" d="M231.61,277.47l7.65-2.73,38.07-7.1s21.76-4.68,23.24-12.2S256.88,124.5,256.88,124.5L155.29,1.87,155.13,314Z"/><path class="cls-2" d="M169.41,5S228.13,3.5,236,39C236,39,212.59,7.89,169.41,5Z"/><path class="cls-1" d="M155.13,0h10.32l4.68,5.93h0A82.06,82.06,0,0,1,252.2,88v39.94s-45.56-42.43-74.27-21.84c0,0-18.09,6.55-22.93-1.55"/><path class="cls-1" d="M168.42,128.72S195,105.94,215.85,127s0,34.4,0,34.4-27.62,4.68-49.62-3.27V130.81Z"/><path class="cls-1" d="M180.74,129.65s2.64,1.56,3.58,8.06c.67,4.57.49,11.58-2,22.2l24.34-1.09s8-20.59-15-29.17Z"/><path class="cls-3" d="M183.49,137.61h16.38l-5.2,21.71-13.55.6S184.78,157.65,183.49,137.61Z"/><path class="cls-4" d="M155,121.53h2v-1.09h3.28v1.09h5.93s19.66-9,35.57-5.61,28.71,15.44,28.08,36.51"/><path class="cls-1" d="M155.13,166.73h7l9.6,3.75,47.51,5.85-.91,2.73H223l-17.29,51.21h-2.92s-5.19-6.05-10.41,0H155.13V166.73"/><path class="cls-5" d="M155.29,168.17H162s2.8,2,3.09,4h5.33s3.74,5.67,3.09,9.6c0,0,29.41,18.13,37.53,31.42l-5.52,8s2.57,2.57.76,5.15c0,0-1.25,2.87-6.24,1.29,0,0-.78-2.4-4.29-1.06l-3.1,2.17Z"/><path class="cls-6" d="M166.24,180.2s24.34,33.46,33.78,36l-10.15,8.58-23.64-41.58v-3Z"/><polygon class="cls-7" points="215.15 178.32 203.44 217.02 218.18 179 218.58 177.96 215.15 178.32"/><polygon class="cls-7" points="219.77 179.03 203.86 217.78 218.58 179.03 219.77 179.03"/><path class="cls-8" d="M202,177.29l-12.47-.93.35,14.09,9.42,7S202.57,187,202,177.29Z"/><polyline class="cls-9" points="155 192.48 170.27 192.48 196.37 234.92 155 234.92 155 192.48"/><path class="cls-10" d="M169.19,200.06v26.65s.51,1.86,4.14,1.89,3.16,0,3.16,0,3.7.12,3.51-1.69V216.67"/><line class="cls-11" x1="160.62" y1="184.88" x2="188.94" y2="230.24"/><path class="cls-10" d="M156.1,192.48V225.4s.5,2.88,4.13,2.92a21.5,21.5,0,0,0,3.16,0s3.71.2,3.51-2.61,0-29.76,0-29.76"/><path class="cls-1" d="M199.47,240.77s12.52,8.19,9.24,19c0,0,18.73,6.59,20.36,9.32,0,0,4,7.17,0,12,0,0-25.79,27.62-73.94,33L155,272.17l40.79-32.1Z"/><polygon points="195.79 240.07 155 272.17 155 240.07 195.79 240.07"/><g class="cls-12"><line class="cls-7" x1="166.24" y1="269.05" x2="155" y2="272.64"/><path class="cls-7" d="M166.22,269c-1.93.41-3.86.85-5.77,1.33a18.74,18.74,0,0,0-2.85.77,10.75,10.75,0,0,0-2.62,1.49l.05.14a10.24,10.24,0,0,0,3-.3,17.31,17.31,0,0,0,2.76-1c1.83-.72,3.66-1.47,5.47-2.26Z"/></g><path class="cls-6" d="M212.57,262s5.55,18.41-14.74,32L173,308.2s17.37-.74,45.1-18.76l9.54-8.25s6-6.55-.82-12.93Z"/><path class="cls-5" d="M208,260.39s-10.45,23.94-23.33,32.92l3,7.18s31-14.83,24.64-38.54Z"/><path class="cls-13" d="M246.59,124.5c12.32,24.19,53.51,122.09,46.49,130.94S268,266.79,268,266.79"/><path class="cls-5" d="M210.39,255.44s8.62-1.91,9.38-8,3.88,5.61,3.88,5.61-3,7.18,3.43,8.12,3,7,3,7l-19.73-8.74Z"/><path class="cls-6" d="M298.77,235.23s14.32,12.44-1,25.47l-2,2.19,10.44-8.43s5.45-4.22-1-14.08C305.17,240.38,303.74,238.31,298.77,235.23Z"/><path class="cls-6" d="M297.52,234.92s14.32,12.44-1,25.47l-2,2.18,10.43-8.42s5.46-4.22-1-14.09C303.92,240.07,302.5,238,297.52,234.92Z"/><path class="cls-5" d="M209,249.69s-.38-10.42,8.75-10.63a4,4,0,0,1,3.15.9S216.64,240,209,249.69Z"/><polygon class="cls-14" points="169.19 131.21 169.19 154.3 169.19 157.94 169.19 159.1 166.24 158.12 166.24 130.8 169.19 128.09 169.19 131.21"/><path class="cls-15" d="M187.94,162.77s12.66.15,17.92-.3c0,0-.46,2.72-2.42,2.69S187.94,162.77,187.94,162.77Z"/><path class="cls-15" d="M188.54,165.77s4.61,1.48,6.25.94C194.79,166.7,194.44,168.38,188.54,165.77Z"/><path class="cls-1" d="M176.48,106.57l14.07-21.14,16.08-3.13-2.17-2.14a1.59,1.59,0,0,1-.86-1.84s10.69-21.83,1.8-35.1-33.24-15.76-33.24-15.76"/><path class="cls-1" d="M179.19,100.32s4.05-15.6,20.12-17.94,30,10.76,30,10.76,15.6,9.21,27.61,31.36c0,0-38.22-28.4-57.88-27.77s-15.84,4.68-15.84,4.68Z"/><path class="cls-1" d="M141.51,3.59S84.82,2,68.79,33.31c0,0-18.49,33.35-19.08,64.24l-2.34,32.1L1.26,243.23S-4.23,253.29,7.7,259s19.07,7.14,19.07,7.14S15,258.08,20,245.68s29.6-96.93,29.6-96.93,5.73-18.56,13.57-26.28,27.5-22.78,50-24.81c0,0,8.74-2,16.38,2.34s15,10.3,25.45,2.35L155.25,0Z"/><path class="cls-1" d="M78.92,277.47l-7.65-2.73-38.07-7.1S11.44,263,10,255.44,53.64,124.5,53.64,124.5L155.23,1.87,155.4,314Z"/><polyline class="cls-3" points="155 234.92 195.99 234.84 199.47 240.07 187.69 240.07 155 240.07 155 234.92"/><path class="cls-2" d="M140.85,5S82.13,3.5,74.31,39C74.31,39,97.67,7.89,140.85,5Z"/><path class="cls-1" d="M155.35,0H144.94l-4.68,5.93h0A82.06,82.06,0,0,0,58.2,88v39.94s45.55-42.43,74.26-21.84c0,0,18.1,6.55,22.94-1.55"/><path class="cls-16" d="M141.84,128.72S115.23,105.94,94.41,127s0,34.4,0,34.4S122,166.08,144,158.13V130.81Z"/><path class="cls-6" d="M129.52,129.65s-2.64,1.56-3.58,8.06c-.67,4.57-.49,11.58,2,22.2l-24.34-1.09s-8-20.59,15-29.17Z"/><path class="cls-2" d="M125.77,137.61H109.39l5.2,21.71,13.54.6S124.48,157.65,125.77,137.61Z"/><path class="cls-17" d="M155.25,121.53h-2v-1.09H150v1.09H144s-19.66-9-35.57-5.61-28.71,15.44-28.08,36.51"/><path class="cls-18" d="M155.13,166.73h-7l-9.6,3.75L91,176.33l.9,2.73H87.27l17.28,51.21h2.93s5.19-6.05,10.41,0h37.24V166.73"/><path class="cls-5" d="M155,168.17h-6.67s-2.81,2-3.1,4h-5.32s-3.74,5.67-3.1,9.6c0,0-29.41,18.13-37.52,31.42l5.52,8s-2.57,2.57-.76,5.15c0,0,1.25,2.87,6.24,1.29,0,0,.78-2.4,4.29-1.06l3.1,2.17Z"/><path class="cls-2" d="M144,180.2s-24.34,33.46-33.78,36l10.15,8.58L144,183.23v-3Z"/><polygon class="cls-2" points="95.11 178.32 106.81 217.02 92.08 179 91.68 177.96 95.11 178.32"/><polygon class="cls-2" points="90.49 179.03 106.4 217.78 91.68 179.03 90.49 179.03"/><path class="cls-2" d="M108.27,177.29l12.47-.93-.35,14.09-9.42,7S107.69,187,108.27,177.29Z"/><polyline class="cls-9" points="155.25 192.48 139.99 192.48 113.89 234.92 155.25 234.92 155.25 192.48"/><path class="cls-19" d="M141.06,200.06v26.65s-.5,1.86-4.13,1.89-3.16,0-3.16,0-3.7.12-3.51-1.69V216.67"/><line class="cls-20" x1="149.64" y1="184.88" x2="121.32" y2="230.24"/><path class="cls-2" d="M155.13,171.86s-6.67,2.34-7,13.11c0,0-.77,7.52,7,7.51"/><path class="cls-19" d="M154.16,192.48V225.4s-.5,2.88-4.13,2.92a21.5,21.5,0,0,1-3.16,0s-3.71.2-3.52-2.61,0-29.54,0-29.54"/><path class="cls-1" d="M110.79,240.77s-12.52,8.19-9.24,19c0,0-18.73,6.59-20.36,9.32,0,0-4,7.17,0,12,0,0,25.79,27.62,73.94,33l.12-41.85-40.78-32.1Z"/><polyline class="cls-3" points="155.25 234.92 114.27 234.84 110.79 240.07 122.57 240.07 155.25 240.07 155.25 234.92"/><polygon points="114.47 240.07 155.25 272.17 155.25 240.07 114.47 240.07"/><line class="cls-21" x1="144.02" y1="269.05" x2="155.25" y2="272.64"/><path class="cls-2" d="M144,269c1.93.41,3.86.85,5.76,1.33a18.56,18.56,0,0,1,2.86.77,10.75,10.75,0,0,1,2.62,1.49l-.05.14a10.24,10.24,0,0,1-3-.3,17,17,0,0,1-2.76-1c-1.83-.72-3.66-1.47-5.47-2.26Z"/><path class="cls-2" d="M97.69,262s-5.55,18.41,14.74,32l24.8,14.27s-17.37-.74-45.1-18.76l-9.54-8.25s-6-6.55.82-12.93Z"/><path class="cls-3" d="M102,260.38s10.45,23.94,23.33,32.92l-3,7.18s-31-14.83-24.64-38.54Z"/><path class="cls-22" d="M63.67,124.5C51.34,148.69,10.16,246.59,17.18,255.44S42.3,266.79,42.3,266.79"/><path class="cls-18" d="M99.87,255.44s-8.62-1.91-9.38-8-3.88,5.61-3.88,5.61,3,7.18-3.44,8.12-3,7-3,7l19.73-8.74v-4Z"/><path class="cls-23" d="M11.48,235.23s-14.32,12.44,1,25.47l2,2.19L4.07,254.46s-5.45-4.22,1-14.08C5.09,240.38,6.52,238.31,11.48,235.23Z"/><path class="cls-2" d="M12.74,234.92s-14.32,12.44,1,25.47l2,2.18L5.32,254.15s-5.45-4.22,1-14.09C6.34,240.07,7.76,238,12.74,234.92Z"/><path class="cls-18" d="M101.23,249.69s.38-10.42-8.75-10.63a4,4,0,0,0-3.15.9S93.62,240,101.23,249.69Z"/><polygon class="cls-14" points="141.06 131.21 141.06 154.3 141.06 157.94 141.06 159.1 144.02 158.12 144.02 130.8 141.06 128.09 141.06 131.21"/><path class="cls-2" d="M122.32,162.77s-12.67.15-17.93-.3c0,0,.46,2.72,2.42,2.69S122.32,162.77,122.32,162.77Z"/><path class="cls-2" d="M121.71,165.77s-4.6,1.48-6.24.94C115.47,166.7,115.82,168.38,121.71,165.77Z"/><path class="cls-16" d="M141.14,108.25l14-4.93,14,4.93s0-.58-3.31-10.08-1-14.74-1-14.74l1-20.52s1.49-34.71-.19-37.25c-1.57-2.36-9.39-1.91-10.45-1.84s-8.88-.52-10.45,1.84c-1.68,2.54-.2,37.25-.2,37.25l1,20.52s2.33,5.24-1,14.74S141.14,108.25,141.14,108.25Z"/><path class="cls-1" d="M134.74,105.55,120.66,84.41l-16.08-3.13,2.18-2.14a1.58,1.58,0,0,0,.85-1.83S96.92,55.47,105.82,42.2s33.23-15.75,33.23-15.75"/><path class="cls-1" d="M131.07,100.32s-4-15.6-20.13-17.94S81,93.14,81,93.14s-15.6,9.21-27.61,31.36c0,0,38.22-28.4,57.88-27.77s15.84,4.68,15.84,4.68Z"/><path class="cls-3" d="M140.42,35.08s-9.36-1.56-8.58,6.71,5,11.86,1.56,18.57,0,29.48,0,29.48l-.8,9.77,5.43,9Z"/><path class="cls-24" d="M155.13,171.86s6.67,2.34,7,13.11c0,0,.76,7.52-7,7.51"/><circle class="cls-25" cx="112.86" cy="232.89" r="5.34"/><polygon class="cls-3" points="155.25 269.05 155.25 241.82 123.74 241.82 155.25 269.05"/><polygon class="cls-3" points="155.28 241.82 155.28 269.05 186.79 241.82 155.28 241.82"/><circle class="cls-24" cx="197.4" cy="232.89" r="5.34"/></g></g></svg>